<svg width="600" height="258" viewBox="0 0 600 258" fill="none" xmlns="http://www.w3.org/2000/svg">
    <path d="M16.7894 226.461C16.7914 223.855 17.8279 221.357 19.6711 219.515C21.5142 217.673 24.0132 216.639 26.6188 216.639C29.2245 216.639 31.7235 217.673 33.5666 219.515C35.4098 221.357 36.4463 223.855 36.4483 226.461" fill="#F2F2F2" fill-opacity="0.4"/>
    <path d="M26.6189 226.461C26.5484 226.461 26.4809 226.433 26.431 226.383C26.3812 226.333 26.3532 226.266 26.3532 226.195V221.015C26.3532 220.944 26.3812 220.877 26.431 220.827C26.4808 220.777 26.5484 220.749 26.6189 220.749C26.6893 220.749 26.7569 220.777 26.8067 220.827C26.8565 220.877 26.8845 220.944 26.8845 221.015V226.195C26.8845 226.266 26.8565 226.333 26.8067 226.383C26.7569 226.433 26.6893 226.461 26.6189 226.461V226.461Z" fill="#CCCCCC"/>
    <path d="M26.6188 224.681C26.5553 224.681 26.4939 224.658 26.4458 224.617L23.2579 221.88C23.2311 221.858 23.209 221.83 23.193 221.799C23.1769 221.768 23.1672 221.734 23.1644 221.699C23.1616 221.664 23.1657 221.629 23.1765 221.595C23.1874 221.562 23.2047 221.531 23.2276 221.504C23.2504 221.478 23.2783 221.456 23.3097 221.44C23.341 221.424 23.3752 221.415 23.4102 221.412C23.4452 221.41 23.4803 221.414 23.5136 221.425C23.5468 221.437 23.5776 221.454 23.604 221.477L26.7919 224.213C26.8331 224.249 26.8625 224.296 26.8761 224.348C26.8897 224.401 26.8869 224.456 26.868 224.507C26.8491 224.558 26.8151 224.602 26.7706 224.633C26.726 224.664 26.673 224.681 26.6187 224.681L26.6188 224.681Z" fill="#CCCCCC"/>
    <path d="M47.0747 226.461C47.0767 223.855 48.1132 221.357 49.9563 219.515C51.7995 217.673 54.2985 216.639 56.9041 216.639C59.5097 216.639 62.0088 217.673 63.8519 219.515C65.6951 221.357 66.7315 223.855 66.7335 226.461" fill="#F2F2F2" fill-opacity="0.4"/>
    <path d="M56.9041 226.461C56.8336 226.461 56.7661 226.433 56.7162 226.383C56.6664 226.333 56.6384 226.266 56.6384 226.195V221.015C56.6384 220.944 56.6664 220.877 56.7162 220.827C56.7661 220.777 56.8336 220.749 56.9041 220.749C56.9745 220.749 57.0421 220.777 57.0919 220.827C57.1418 220.877 57.1698 220.944 57.1698 221.015V226.195C57.1697 226.266 57.1417 226.333 57.0919 226.383C57.0421 226.433 56.9745 226.461 56.9041 226.461V226.461Z" fill="#CCCCCC"/>
    <path d="M56.904 224.681C56.8405 224.681 56.7791 224.658 56.7311 224.617L53.5431 221.881C53.5163 221.858 53.4942 221.83 53.4781 221.799C53.462 221.768 53.4523 221.734 53.4494 221.699C53.4466 221.664 53.4507 221.629 53.4616 221.595C53.4724 221.562 53.4898 221.531 53.5126 221.504C53.5355 221.478 53.5634 221.456 53.5948 221.44C53.6261 221.424 53.6603 221.415 53.6953 221.412C53.7304 221.41 53.7655 221.414 53.7988 221.425C53.8321 221.437 53.8628 221.454 53.8892 221.477L57.0771 224.213C57.1183 224.249 57.1477 224.296 57.1613 224.349C57.1749 224.401 57.1721 224.457 57.1532 224.507C57.1344 224.558 57.1004 224.602 57.0558 224.633C57.0112 224.664 56.9583 224.681 56.904 224.681L56.904 224.681Z" fill="#CCCCCC"/>
    <path d="M449.398 38.5432C459.834 38.5432 468.295 30.0828 468.295 19.6464C468.295 9.20994 459.834 0.749542 449.398 0.749542C438.962 0.749542 430.501 9.20994 430.501 19.6464C430.501 30.0828 438.962 38.5432 449.398 38.5432Z" fill="#F2F2F2" fill-opacity="0.4"/>
    <path d="M62.2995 247.553C71.7872 247.553 79.4785 245.759 79.4785 243.545C79.4785 241.331 71.7872 239.537 62.2995 239.537C52.8119 239.537 45.1206 241.331 45.1206 243.545C45.1206 245.759 52.8119 247.553 62.2995 247.553Z" fill="#F2F2F2" fill-opacity="0.4"/>
    <path d="M53.5301 79.0014C58.0356 64.9327 69.0369 54.0219 82.0838 47.5325C97.5637 39.8329 115.352 38.9611 132.16 41.9578C150.304 45.1927 167.262 52.6502 183.677 60.7885C199.778 68.7709 215.618 77.1998 232.362 83.7965C265.791 96.9474 301.222 104.286 337.123 105.497C369.437 106.575 403.987 103.034 431.656 84.8716C457.008 68.2299 473.14 40.7759 481.542 12.158C482.617 8.49429 483.574 4.79904 484.41 1.07229C484.655 -0.00420684 482.999 -0.463832 482.754 0.615611C475.976 30.4999 461.524 60.0358 436.83 79.0855C410.122 99.6889 375.07 104.452 342.268 103.907C305.974 103.273 270.065 96.3436 236.141 83.4271C218.966 76.8886 202.759 68.3982 186.345 60.2014C170.292 52.1846 153.788 44.6802 136.135 40.9828C120.016 37.6066 102.758 37.4008 87.2167 43.4087C74.4196 48.3557 62.7513 57.1734 55.9228 69.2358C54.2578 72.1919 52.901 75.3112 51.8736 78.5447C51.5356 79.6001 53.1937 80.0519 53.5301 79.0014V79.0014Z" fill="#26498D"/>
    <path d="M298.789 210.544C298.941 210.544 299.087 210.484 299.194 210.377C299.302 210.269 299.362 210.124 299.362 209.972C299.362 209.82 299.302 209.674 299.194 209.567C299.087 209.459 298.941 209.399 298.789 209.399H293.349V207.109H298.789C298.941 207.109 299.087 207.048 299.194 206.941C299.302 206.833 299.362 206.688 299.362 206.536C299.362 206.384 299.302 206.238 299.194 206.131C299.087 206.024 298.941 205.963 298.789 205.963H252.406C252.254 205.963 252.109 206.024 252.001 206.131C251.894 206.238 251.834 206.384 251.834 206.536C251.834 206.688 251.894 206.833 252.001 206.941C252.109 207.048 252.254 207.109 252.406 207.109H257.846V209.399H252.406C252.254 209.399 252.109 209.459 252.001 209.567C251.894 209.674 251.834 209.82 251.834 209.972C251.834 210.124 251.894 210.269 252.001 210.377C252.109 210.484 252.254 210.544 252.406 210.544H257.846V212.835H252.406C252.254 212.835 252.109 212.895 252.001 213.003C251.894 213.11 251.834 213.256 251.834 213.408C251.834 213.559 251.894 213.705 252.001 213.812C252.109 213.92 252.254 213.98 252.406 213.98H257.846V216.271H252.979C252.675 216.271 252.384 216.391 252.169 216.606C251.954 216.821 251.834 217.112 251.834 217.416C251.834 217.72 251.954 218.011 252.169 218.226C252.384 218.441 252.675 218.561 252.979 218.561H257.612C257.579 218.653 257.561 218.75 257.56 218.847V226.864C257.56 227.092 257.65 227.311 257.812 227.472C257.973 227.633 258.191 227.723 258.419 227.723C258.647 227.723 258.865 227.633 259.026 227.472C259.187 227.311 259.278 227.092 259.278 226.864V218.847C259.277 218.75 259.259 218.653 259.225 218.561H291.97C291.937 218.653 291.919 218.75 291.918 218.847V226.864C291.918 227.092 292.008 227.311 292.169 227.472C292.33 227.633 292.549 227.723 292.777 227.723C293.005 227.723 293.223 227.633 293.384 227.472C293.545 227.311 293.636 227.092 293.636 226.864V218.847C293.635 218.75 293.617 218.653 293.583 218.561H298.217C298.52 218.561 298.812 218.441 299.027 218.226C299.241 218.011 299.362 217.72 299.362 217.416C299.362 217.112 299.241 216.821 299.027 216.606C298.812 216.391 298.52 216.271 298.217 216.271H293.349V213.98H298.789C298.941 213.98 299.087 213.92 299.194 213.812C299.302 213.705 299.362 213.559 299.362 213.408C299.362 213.256 299.302 213.11 299.194 213.003C299.087 212.895 298.941 212.835 298.789 212.835H293.349V210.544H298.789ZM258.992 207.109H292.204V209.399H258.992V207.109ZM292.204 216.271H258.992V213.98H292.204V216.271ZM292.204 212.835H258.992V210.544H292.204V212.835Z" fill="#3F3D56"/>
    <path d="M119.563 186.51C119.563 176.397 111.359 152.398 101.238 152.398C91.1183 152.398 82.9143 176.397 82.9143 186.51C82.9143 191.37 84.8449 196.031 88.2813 199.467C91.7178 202.904 96.3786 204.834 101.239 204.834C106.098 204.834 110.759 202.904 114.196 199.467C117.632 196.031 119.563 191.37 119.563 186.51H119.563Z" fill="#F2F2F2" fill-opacity="0.4"/>
    <path d="M101.811 227.482C101.659 227.482 101.514 227.422 101.406 227.314C101.299 227.207 101.238 227.061 101.238 226.909V175.865C101.238 175.713 101.299 175.567 101.406 175.46C101.514 175.353 101.659 175.292 101.811 175.292C101.963 175.292 102.109 175.353 102.216 175.46C102.323 175.567 102.384 175.713 102.384 175.865V226.909C102.384 227.061 102.323 227.207 102.216 227.314C102.109 227.422 101.963 227.482 101.811 227.482Z" fill="#CCCCCC"/>
    <path d="M101.811 184.233C101.698 184.233 101.587 184.199 101.493 184.136C101.399 184.073 101.326 183.984 101.282 183.879C101.239 183.775 101.227 183.66 101.25 183.549C101.272 183.437 101.326 183.335 101.406 183.255L108.895 175.766C109.002 175.659 109.148 175.599 109.3 175.599C109.452 175.599 109.597 175.659 109.705 175.766C109.812 175.874 109.872 176.019 109.872 176.171C109.872 176.323 109.812 176.469 109.705 176.576L102.216 184.065C102.163 184.118 102.1 184.161 102.03 184.189C101.961 184.218 101.886 184.233 101.811 184.233V184.233Z" fill="#CCCCCC"/>
    <path d="M312.539 227.482C312.387 227.482 312.242 227.422 312.134 227.314C312.027 227.207 311.967 227.061 311.967 226.909V175.865C311.967 175.713 312.027 175.567 312.134 175.46C312.242 175.353 312.387 175.292 312.539 175.292C312.691 175.292 312.837 175.353 312.944 175.46C313.052 175.567 313.112 175.713 313.112 175.865V226.909C313.112 227.061 313.052 227.207 312.944 227.314C312.837 227.422 312.691 227.482 312.539 227.482Z" fill="#3F3D56"/>
    <path d="M369.23 186.51C369.23 176.397 361.026 152.398 350.906 152.398C340.785 152.398 332.581 176.397 332.581 186.51C332.581 191.37 334.512 196.031 337.948 199.467C341.385 202.904 346.046 204.834 350.906 204.834C355.765 204.834 360.426 202.904 363.863 199.467C367.299 196.031 369.23 191.37 369.23 186.51H369.23Z" fill="#F2F2F2" fill-opacity="0.4"/>
    <path d="M351.478 227.482C351.326 227.482 351.181 227.422 351.073 227.314C350.966 227.207 350.906 227.061 350.906 226.909V175.865C350.906 175.713 350.966 175.567 351.073 175.46C351.181 175.353 351.326 175.292 351.478 175.292C351.63 175.292 351.776 175.353 351.883 175.46C351.99 175.567 352.051 175.713 352.051 175.865V226.909C352.051 227.061 351.99 227.207 351.883 227.314C351.776 227.422 351.63 227.482 351.478 227.482Z" fill="#CCCCCC"/>
    <path d="M351.478 184.233C351.365 184.233 351.254 184.199 351.16 184.136C351.066 184.073 350.993 183.984 350.949 183.879C350.906 183.775 350.895 183.66 350.917 183.549C350.939 183.437 350.993 183.335 351.073 183.255L358.562 175.766C358.669 175.659 358.815 175.599 358.967 175.599C359.119 175.599 359.264 175.659 359.372 175.766C359.479 175.874 359.539 176.019 359.539 176.171C359.539 176.323 359.479 176.469 359.372 176.576L351.883 184.065C351.83 184.118 351.767 184.161 351.697 184.189C351.628 184.218 351.553 184.233 351.478 184.233Z" fill="#CCCCCC"/>
    <path d="M170.527 227.225H123.571C122.281 227.224 121.043 226.71 120.131 225.798C119.218 224.885 118.705 223.648 118.704 222.358V32.8169C118.705 31.5264 119.218 30.2892 120.131 29.3767C121.043 28.4642 122.281 27.9509 123.571 27.9495H170.527C171.817 27.9509 173.054 28.4642 173.967 29.3767C174.879 30.2892 175.393 31.5264 175.394 32.8169V222.358C175.393 223.648 174.879 224.885 173.967 225.798C173.054 226.71 171.817 227.224 170.527 227.225V227.225Z" fill="#F2F2F2" fill-opacity="0.4"/>
    <path d="M141.895 70.8968H131.015C130.636 70.8964 130.272 70.7454 130.003 70.477C129.735 70.2087 129.584 69.8448 129.584 69.4652V52.8589C129.584 52.4794 129.735 52.1155 130.003 51.8471C130.272 51.5788 130.636 51.4278 131.015 51.4274H141.895C142.275 51.4278 142.639 51.5788 142.907 51.8471C143.175 52.1155 143.326 52.4794 143.327 52.8589V69.4652C143.326 69.8448 143.175 70.2087 142.907 70.477C142.639 70.7454 142.275 70.8964 141.895 70.8968V70.8968Z" fill="white" fill-opacity="0.4"/>
    <path d="M163.083 70.8968H152.203C151.823 70.8964 151.459 70.7454 151.191 70.477C150.922 70.2087 150.771 69.8448 150.771 69.4652V52.8589C150.771 52.4794 150.922 52.1155 151.191 51.8471C151.459 51.5788 151.823 51.4278 152.203 51.4274H163.083C163.462 51.4278 163.826 51.5788 164.094 51.8471C164.363 52.1155 164.514 52.4794 164.514 52.8589V69.4652C164.514 69.8448 164.363 70.2087 164.094 70.477C163.826 70.7454 163.462 70.8964 163.083 70.8968V70.8968Z" fill="white" fill-opacity="0.4"/>
    <path d="M141.895 101.246H131.015C130.636 101.246 130.272 101.095 130.003 100.826C129.735 100.558 129.584 100.194 129.584 99.8147V83.2084C129.584 82.8288 129.735 82.4649 130.003 82.1966C130.272 81.9282 130.636 81.7772 131.015 81.7768H141.895C142.275 81.7772 142.639 81.9282 142.907 82.1966C143.175 82.4649 143.326 82.8288 143.327 83.2084V99.8147C143.326 100.194 143.175 100.558 142.907 100.826C142.639 101.095 142.275 101.246 141.895 101.246V101.246Z" fill="white" fill-opacity="0.4"/>
    <path d="M163.083 101.246H152.203C151.823 101.246 151.459 101.095 151.191 100.826C150.922 100.558 150.771 100.194 150.771 99.8147V83.2084C150.771 82.8288 150.922 82.4649 151.191 82.1966C151.459 81.9282 151.823 81.7772 152.203 81.7768H163.083C163.462 81.7772 163.826 81.9282 164.094 82.1966C164.363 82.4649 164.514 82.8288 164.514 83.2084V99.8147C164.514 100.194 164.363 100.558 164.094 100.826C163.826 101.095 163.462 101.246 163.083 101.246V101.246Z" fill="white" fill-opacity="0.4"/>
    <path d="M141.895 131.596H131.015C130.636 131.595 130.272 131.444 130.003 131.176C129.735 130.908 129.584 130.544 129.584 130.164V113.558C129.584 113.178 129.735 112.814 130.003 112.546C130.272 112.278 130.636 112.127 131.015 112.126H141.895C142.275 112.127 142.639 112.278 142.907 112.546C143.175 112.814 143.326 113.178 143.327 113.558V130.164C143.326 130.544 143.175 130.908 142.907 131.176C142.639 131.444 142.275 131.595 141.895 131.596V131.596Z" fill="white" fill-opacity="0.4"/>
    <path d="M163.083 131.596H152.203C151.823 131.595 151.459 131.444 151.191 131.176C150.922 130.908 150.771 130.544 150.771 130.164V113.558C150.771 113.178 150.922 112.814 151.191 112.546C151.459 112.278 151.823 112.127 152.203 112.126H163.083C163.462 112.127 163.826 112.278 164.094 112.546C164.363 112.814 164.514 113.178 164.514 113.558V130.164C164.514 130.544 164.363 130.908 164.094 131.176C163.826 131.444 163.462 131.595 163.083 131.596V131.596Z" fill="white" fill-opacity="0.4"/>
    <path d="M141.895 161.945H131.015C130.636 161.945 130.272 161.794 130.003 161.525C129.735 161.257 129.584 160.893 129.584 160.514V143.907C129.584 143.528 129.735 143.164 130.003 142.895C130.272 142.627 130.636 142.476 131.015 142.476H141.895C142.275 142.476 142.639 142.627 142.907 142.895C143.175 143.164 143.326 143.528 143.327 143.907V160.514C143.326 160.893 143.175 161.257 142.907 161.525C142.639 161.794 142.275 161.945 141.895 161.945V161.945Z" fill="white" fill-opacity="0.4"/>
    <path d="M163.083 161.945H152.203C151.823 161.945 151.459 161.794 151.191 161.525C150.922 161.257 150.771 160.893 150.771 160.514V143.907C150.771 143.528 150.922 143.164 151.191 142.895C151.459 142.627 151.823 142.476 152.203 142.476H163.083C163.462 142.476 163.826 142.627 164.094 142.895C164.363 143.164 164.514 143.528 164.514 143.907V160.514C164.514 160.893 164.363 161.257 164.094 161.525C163.826 161.794 163.462 161.945 163.083 161.945V161.945Z" fill="white" fill-opacity="0.4"/>
    <path d="M141.895 192.295H131.015C130.636 192.294 130.272 192.143 130.003 191.875C129.735 191.606 129.584 191.243 129.584 190.863V174.257C129.584 173.877 129.735 173.513 130.003 173.245C130.272 172.977 130.636 172.826 131.015 172.825H141.895C142.275 172.826 142.639 172.977 142.907 173.245C143.175 173.513 143.326 173.877 143.327 174.257V190.863C143.326 191.243 143.175 191.606 142.907 191.875C142.639 192.143 142.275 192.294 141.895 192.295V192.295Z" fill="white" fill-opacity="0.4"/>
    <path d="M163.083 192.295H152.203C151.823 192.294 151.459 192.143 151.191 191.875C150.922 191.606 150.771 191.243 150.771 190.863V174.257C150.771 173.877 150.922 173.513 151.191 173.245C151.459 172.977 151.823 172.826 152.203 172.825H163.083C163.462 172.826 163.826 172.977 164.094 173.245C164.363 173.513 164.514 173.877 164.514 174.257V190.863C164.514 191.243 164.363 191.606 164.094 191.875C163.826 192.143 163.462 192.294 163.083 192.295V192.295Z" fill="white" fill-opacity="0.4"/>
    <path d="M448.253 227.798H366.939C365.649 227.796 364.412 227.283 363.499 226.37C362.587 225.458 362.073 224.221 362.072 222.93V131.882C362.073 130.592 362.587 129.354 363.499 128.442C364.412 127.529 365.649 127.016 366.939 127.015H448.253C449.543 127.016 450.78 127.529 451.693 128.442C452.605 129.354 453.119 130.592 453.12 131.882V222.93C453.119 224.221 452.605 225.458 451.693 226.37C450.78 227.283 449.543 227.796 448.253 227.798V227.798Z" fill="#F2F2F2" fill-opacity="0.4"/>
    <path d="M402.442 171.966H391.562C391.183 171.966 390.819 171.815 390.551 171.546C390.282 171.278 390.131 170.914 390.131 170.535V153.928C390.131 153.549 390.282 153.185 390.551 152.917C390.819 152.648 391.183 152.497 391.562 152.497H402.442C402.822 152.497 403.186 152.648 403.454 152.917C403.722 153.185 403.873 153.549 403.874 153.928V170.535C403.873 170.914 403.722 171.278 403.454 171.546C403.186 171.815 402.822 171.966 402.442 171.966V171.966Z" fill="white" fill-opacity="0.4"/>
    <path d="M423.63 171.966H412.75C412.37 171.966 412.006 171.815 411.738 171.546C411.47 171.278 411.319 170.914 411.318 170.535V153.928C411.319 153.549 411.47 153.185 411.738 152.917C412.006 152.648 412.37 152.497 412.75 152.497H423.63C424.009 152.497 424.373 152.648 424.641 152.917C424.91 153.185 425.061 153.549 425.061 153.928V170.535C425.061 170.914 424.91 171.278 424.641 171.546C424.373 171.815 424.009 171.966 423.63 171.966V171.966Z" fill="white" fill-opacity="0.4"/>
    <path d="M402.442 202.316H391.562C391.183 202.315 390.819 202.164 390.551 201.896C390.282 201.627 390.131 201.264 390.131 200.884V184.278C390.131 183.898 390.282 183.534 390.551 183.266C390.819 182.998 391.183 182.847 391.562 182.846H402.442C402.822 182.847 403.186 182.998 403.454 183.266C403.722 183.534 403.873 183.898 403.874 184.278V200.884C403.873 201.264 403.722 201.627 403.454 201.896C403.186 202.164 402.822 202.315 402.442 202.316V202.316Z" fill="white" fill-opacity="0.4"/>
    <path d="M423.63 202.316H412.75C412.37 202.315 412.006 202.164 411.738 201.896C411.47 201.627 411.319 201.264 411.318 200.884V184.278C411.319 183.898 411.47 183.534 411.738 183.266C412.006 182.998 412.37 182.847 412.75 182.846H423.63C424.009 182.847 424.373 182.998 424.641 183.266C424.91 183.534 425.061 183.898 425.061 184.278V200.884C425.061 201.264 424.91 201.627 424.641 201.896C424.373 202.164 424.009 202.315 423.63 202.316Z" fill="white" fill-opacity="0.4"/>
    <path d="M599.427 228.084H0.572631C0.42076 228.084 0.275108 228.024 0.167719 227.916C0.0603302 227.809 0 227.663 0 227.511C0 227.359 0.0603302 227.214 0.167719 227.106C0.275108 226.999 0.42076 226.939 0.572631 226.939H599.427C599.579 226.939 599.725 226.999 599.832 227.106C599.94 227.214 600 227.359 600 227.511C600 227.663 599.94 227.809 599.832 227.916C599.725 228.024 599.579 228.084 599.427 228.084Z" fill="#E6E6E6"/>
    <path d="M207.748 248.126H154.493C154.341 248.126 154.196 248.066 154.088 247.958C153.981 247.851 153.921 247.705 153.921 247.553C153.921 247.402 153.981 247.256 154.088 247.149C154.196 247.041 154.341 246.981 154.493 246.981H207.748C207.9 246.981 208.045 247.041 208.153 247.149C208.26 247.256 208.32 247.402 208.32 247.553C208.32 247.705 208.26 247.851 208.153 247.958C208.045 248.066 207.9 248.126 207.748 248.126Z" fill="#E6E6E6"/>
    <path d="M340.026 248.126H286.771C286.619 248.126 286.473 248.066 286.366 247.958C286.259 247.851 286.198 247.705 286.198 247.553C286.198 247.402 286.259 247.256 286.366 247.149C286.473 247.041 286.619 246.981 286.771 246.981H340.026C340.177 246.981 340.323 247.041 340.43 247.149C340.538 247.256 340.598 247.402 340.598 247.553C340.598 247.705 340.538 247.851 340.43 247.958C340.323 248.066 340.177 248.126 340.026 248.126Z" fill="#E6E6E6"/>
    <path d="M472.303 248.126H419.049C418.897 248.126 418.751 248.066 418.644 247.958C418.536 247.851 418.476 247.705 418.476 247.553C418.476 247.402 418.536 247.256 418.644 247.149C418.751 247.041 418.897 246.981 419.049 246.981H472.303C472.455 246.981 472.601 247.041 472.708 247.149C472.816 247.256 472.876 247.402 472.876 247.553C472.876 247.705 472.816 247.851 472.708 247.958C472.601 248.066 472.455 248.126 472.303 248.126Z" fill="#E6E6E6"/>
    <path d="M233.516 186.51C233.516 176.397 225.312 152.398 215.192 152.398C205.072 152.398 196.868 176.397 196.868 186.51C196.868 191.37 198.798 196.031 202.235 199.467C205.671 202.904 210.332 204.834 215.192 204.834C220.052 204.834 224.713 202.904 228.149 199.467C231.586 196.031 233.516 191.37 233.516 186.51H233.516Z" fill="#F2F2F2" fill-opacity="0.4"/>
    <path d="M215.765 227.482C215.613 227.482 215.467 227.422 215.36 227.314C215.252 227.207 215.192 227.061 215.192 226.909V175.865C215.192 175.713 215.252 175.567 215.36 175.46C215.467 175.353 215.613 175.292 215.765 175.292C215.917 175.292 216.062 175.353 216.17 175.46C216.277 175.567 216.337 175.713 216.337 175.865V226.909C216.337 227.061 216.277 227.207 216.17 227.314C216.062 227.422 215.917 227.482 215.765 227.482Z" fill="#CCCCCC"/>
    <path d="M215.765 184.233C215.651 184.233 215.541 184.199 215.447 184.136C215.352 184.073 215.279 183.984 215.236 183.879C215.192 183.775 215.181 183.66 215.203 183.549C215.225 183.437 215.28 183.335 215.36 183.255L222.848 175.766C222.956 175.659 223.101 175.599 223.253 175.599C223.405 175.599 223.551 175.659 223.658 175.766C223.766 175.874 223.826 176.019 223.826 176.171C223.826 176.323 223.766 176.469 223.658 176.576L216.17 184.065C216.116 184.118 216.053 184.161 215.984 184.189C215.914 184.218 215.84 184.233 215.765 184.233Z" fill="#CCCCCC"/>
    <path d="M526.131 186.51C526.131 176.397 517.927 152.398 507.806 152.398C497.686 152.398 489.482 176.397 489.482 186.51C489.482 191.37 491.413 196.031 494.849 199.467C498.286 202.904 502.947 204.834 507.806 204.834C512.666 204.834 517.327 202.904 520.764 199.467C524.2 196.031 526.131 191.37 526.131 186.51H526.131Z" fill="#F2F2F2" fill-opacity="0.4"/>
    <path d="M508.379 227.482C508.227 227.482 508.082 227.422 507.974 227.314C507.867 227.207 507.806 227.061 507.806 226.909V175.865C507.806 175.713 507.867 175.567 507.974 175.46C508.082 175.353 508.227 175.292 508.379 175.292C508.531 175.292 508.677 175.353 508.784 175.46C508.891 175.567 508.952 175.713 508.952 175.865V226.909C508.952 227.061 508.891 227.207 508.784 227.314C508.677 227.422 508.531 227.482 508.379 227.482Z" fill="#CCCCCC"/>
    <path d="M508.379 184.233C508.266 184.233 508.155 184.199 508.061 184.136C507.967 184.073 507.893 183.984 507.85 183.879C507.807 183.775 507.795 183.66 507.818 183.549C507.84 183.437 507.894 183.335 507.974 183.255L515.463 175.766C515.57 175.659 515.716 175.599 515.868 175.599C516.02 175.599 516.165 175.659 516.273 175.766C516.38 175.874 516.44 176.019 516.44 176.171C516.44 176.323 516.38 176.469 516.273 176.576L508.784 184.065C508.731 184.118 508.668 184.161 508.598 184.189C508.529 184.218 508.454 184.233 508.379 184.233V184.233Z" fill="#CCCCCC"/>
    <path d="M318.838 192.867H306.24C305.861 192.867 305.497 192.716 305.228 192.448C304.96 192.179 304.809 191.815 304.809 191.436V178.838C304.809 178.458 304.96 178.094 305.228 177.826C305.497 177.557 305.861 177.407 306.24 177.406H318.838C319.218 177.407 319.582 177.557 319.85 177.826C320.118 178.094 320.269 178.458 320.27 178.838V191.436C320.269 191.815 320.118 192.179 319.85 192.448C319.582 192.716 319.218 192.867 318.838 192.867Z" fill="#3F3D56"/>
    <path d="M441.133 199.002C441.27 199.038 441.398 199.104 441.508 199.195C441.617 199.286 441.705 199.4 441.766 199.529C441.827 199.657 441.858 199.798 441.859 199.94C441.859 200.082 441.829 200.223 441.769 200.352L444.259 202.753L442.505 203.146L440.409 200.806C440.199 200.691 440.038 200.503 439.957 200.278C439.876 200.052 439.88 199.805 439.969 199.583C440.059 199.36 440.226 199.178 440.441 199.071C440.655 198.964 440.901 198.94 441.132 199.002H441.133Z" fill="#FFB8B8"/>
    <path d="M444.634 205.319L441.562 202.437C441.52 202.397 441.486 202.349 441.462 202.296C441.439 202.243 441.426 202.186 441.425 202.128C441.424 202.069 441.434 202.012 441.456 201.958C441.477 201.904 441.509 201.855 441.55 201.813L442.178 201.178C442.252 201.103 442.351 201.057 442.457 201.05C442.563 201.042 442.668 201.074 442.752 201.138L445.326 203.105L446.932 199.21C446.995 199.057 447.089 198.918 447.209 198.802C447.328 198.686 447.47 198.596 447.625 198.537C447.78 198.478 447.946 198.452 448.112 198.46C448.278 198.468 448.441 198.509 448.59 198.582V198.582C448.826 198.696 449.018 198.883 449.138 199.116C449.258 199.348 449.299 199.613 449.255 199.871C448.964 201.642 447.199 203.984 446.172 205.222C446.032 205.391 445.843 205.512 445.631 205.569C445.419 205.626 445.195 205.616 444.989 205.54C444.857 205.49 444.736 205.415 444.634 205.319V205.319Z" fill="#6C63FF"/>
    <path d="M442.91 202.523L440.649 199.243C440.62 199.201 440.609 199.149 440.618 199.098C440.627 199.048 440.656 199.003 440.698 198.974L440.789 198.911C440.81 198.897 440.834 198.887 440.859 198.881C440.883 198.876 440.909 198.876 440.934 198.88C440.959 198.885 440.983 198.894 441.004 198.908C441.026 198.922 441.044 198.94 441.059 198.961L443.32 202.241C443.334 202.262 443.344 202.285 443.35 202.31C443.355 202.335 443.356 202.361 443.351 202.386C443.346 202.411 443.337 202.435 443.323 202.456C443.309 202.477 443.291 202.496 443.27 202.51L443.18 202.573C443.137 202.602 443.085 202.613 443.035 202.604C442.984 202.594 442.939 202.565 442.91 202.523V202.523Z" fill="white"/>
    <path d="M442.278 202.548L440.401 199.825C440.321 199.709 440.291 199.566 440.316 199.427C440.342 199.288 440.421 199.165 440.537 199.085L440.729 198.953L443.21 202.552L443.019 202.684C442.902 202.764 442.759 202.794 442.62 202.769C442.481 202.743 442.358 202.664 442.278 202.548V202.548Z" fill="#3F3D56"/>
    <path d="M442.505 226.043L441.326 225.907L441.482 221.317L443.03 221.496L442.505 226.043Z" fill="#FFB8B8"/>
    <path d="M442.674 227.22L438.873 226.782L438.878 226.734C438.901 226.539 438.961 226.351 439.056 226.18C439.151 226.009 439.279 225.859 439.432 225.737C439.586 225.616 439.761 225.526 439.949 225.472C440.137 225.418 440.334 225.402 440.528 225.425H440.529L442.85 225.693L442.674 227.22Z" fill="#2F2E41"/>
    <path d="M456.213 225.171L455.08 225.522L453.189 221.315L454.863 220.798L456.213 225.171Z" fill="#FFB8B8"/>
    <path d="M456.842 226.181L453.186 227.31L453.172 227.264C453.114 227.077 453.094 226.881 453.112 226.686C453.13 226.491 453.187 226.302 453.278 226.129C453.369 225.956 453.494 225.803 453.644 225.678C453.795 225.553 453.969 225.459 454.155 225.401H454.156L456.389 224.712L456.842 226.181Z" fill="#2F2E41"/>
    <path d="M441.189 224.985C441.069 224.948 440.969 224.866 440.908 224.756C440.848 224.646 440.833 224.517 440.866 224.396L441.577 216.216C441.61 215.843 441.727 215.482 441.92 215.161L446.221 208.022L450.071 208.714L450.095 208.724C451.966 209.87 453.627 215.426 455.233 220.799C455.483 221.634 455.742 222.498 455.994 223.324C456.041 223.442 456.039 223.573 455.991 223.69C455.942 223.807 455.849 223.901 455.733 223.951L454.567 224.441C454.457 224.488 454.333 224.492 454.219 224.452C454.106 224.413 454.012 224.333 453.955 224.227L447.963 213.258C447.955 213.244 447.945 213.232 447.932 213.223C447.919 213.215 447.904 213.209 447.888 213.208C447.873 213.206 447.857 213.208 447.843 213.213C447.828 213.219 447.815 213.228 447.805 213.24L444.328 217.175L443.05 224.673L443.045 224.69C442.999 224.797 442.915 224.884 442.81 224.935C442.705 224.985 442.585 224.996 442.473 224.965L441.219 224.989L441.211 224.989L441.189 224.985Z" fill="#2F2E41"/>
    <path d="M446.013 208.804L445.989 208.797L445.982 208.772C445.964 208.713 444.204 202.759 445.79 198.963L445.791 198.96C445.838 198.869 446.944 196.744 448.229 196.532L448.263 196.526L448.681 197.307C448.812 197.439 451.073 199.786 450.047 203.821C450.139 204.152 451.387 208.694 450.708 209.373C450.461 209.544 450.16 209.62 449.861 209.586C448.553 209.474 447.262 209.212 446.013 208.804V208.804Z" fill="#6C63FF"/>
    <path d="M447.964 195.788C449.621 195.788 450.965 194.444 450.965 192.787C450.965 191.13 449.621 189.786 447.964 189.786C446.307 189.786 444.963 191.13 444.963 192.787C444.963 194.444 446.307 195.788 447.964 195.788Z" fill="#2F2E41"/>
    <path d="M446.772 195.773C448.085 195.773 449.149 194.709 449.149 193.396C449.149 192.083 448.085 191.019 446.772 191.019C445.459 191.019 444.394 192.083 444.394 193.396C444.394 194.709 445.459 195.773 446.772 195.773Z" fill="#FFB8B8"/>
    <path d="M448.302 195.705C448.085 195.782 447.819 195.85 447.648 195.691C447.577 195.599 447.535 195.487 447.529 195.371C447.522 195.255 447.55 195.14 447.61 195.04C447.733 194.844 447.833 194.635 447.907 194.415C447.929 194.251 447.909 194.083 447.847 193.928C447.785 193.774 447.684 193.638 447.554 193.535C447.296 193.338 447.004 193.191 446.693 193.101L445.029 192.51C444.596 192.408 444.212 192.159 443.942 191.806C443.803 191.512 443.779 191.176 443.875 190.865C443.971 190.554 444.18 190.291 444.461 190.126C444.743 189.983 445.055 189.906 445.371 189.9C445.688 189.894 446.001 189.959 446.289 190.09C446.607 190.238 446.932 190.368 447.264 190.48C447.93 190.656 448.688 190.498 449.274 190.874C449.521 191.061 449.717 191.307 449.844 191.59C449.972 191.873 450.026 192.183 450.003 192.492C449.953 193.115 449.787 193.722 449.513 194.283C449.386 194.628 449.203 194.951 448.97 195.236C448.856 195.376 448.711 195.486 448.545 195.557C448.38 195.628 448.2 195.659 448.02 195.646L448.302 195.705Z" fill="#2F2E41"/>
    <path d="M450.48 193.271C451.55 193.271 452.416 192.404 452.416 191.335C452.416 190.266 451.55 189.399 450.48 189.399C449.411 189.399 448.545 190.266 448.545 191.335C448.545 192.404 449.411 193.271 450.48 193.271Z" fill="#2F2E41"/>
    <path d="M447.286 194.142C447.286 194.107 447.296 194.072 447.314 194.042C447.332 194.012 447.358 193.988 447.389 193.971C447.42 193.955 447.455 193.947 447.49 193.949C447.525 193.95 447.559 193.962 447.588 193.981C447.617 194.001 447.64 194.028 447.655 194.06C447.67 194.092 447.676 194.127 447.672 194.162C447.669 194.197 447.656 194.23 447.635 194.258C447.613 194.286 447.585 194.308 447.552 194.321V194.747C447.552 194.757 447.551 194.766 447.547 194.775C447.543 194.784 447.538 194.792 447.531 194.799C447.525 194.806 447.517 194.811 447.508 194.815C447.499 194.818 447.489 194.82 447.48 194.82C447.47 194.82 447.461 194.818 447.452 194.815C447.443 194.811 447.435 194.806 447.428 194.799C447.422 194.792 447.416 194.784 447.413 194.775C447.409 194.766 447.407 194.757 447.407 194.747V194.321C447.372 194.307 447.341 194.282 447.319 194.25C447.298 194.218 447.286 194.181 447.286 194.142V194.142Z" fill="white"/>
    <path d="M441.25 201.034C441.392 201.02 441.535 201.037 441.669 201.084C441.803 201.131 441.926 201.207 442.027 201.307C442.129 201.406 442.208 201.527 442.258 201.66C442.308 201.793 442.328 201.936 442.317 202.078L445.488 203.461L443.981 204.44L441.201 202.977C440.964 202.943 440.748 202.823 440.593 202.64C440.439 202.457 440.357 202.223 440.363 201.984C440.369 201.744 440.462 201.515 440.626 201.34C440.79 201.165 441.012 201.056 441.25 201.034Z" fill="#FFB8B8"/>
    <path d="M446.734 205.734L442.85 204.104C442.797 204.081 442.748 204.048 442.708 204.007C442.667 203.965 442.635 203.916 442.614 203.862C442.592 203.808 442.582 203.75 442.583 203.692C442.585 203.634 442.598 203.576 442.622 203.523L442.988 202.709C443.032 202.613 443.109 202.535 443.206 202.492C443.302 202.448 443.411 202.441 443.513 202.472L446.611 203.418L446.759 199.208C446.764 199.042 446.804 198.879 446.876 198.729C446.947 198.579 447.049 198.445 447.174 198.335C447.299 198.226 447.445 198.143 447.604 198.093C447.762 198.042 447.929 198.025 448.094 198.041V198.041C448.355 198.066 448.6 198.174 448.793 198.35C448.986 198.526 449.117 198.76 449.167 199.017C449.511 200.779 448.672 203.589 448.142 205.108C448.069 205.315 447.935 205.494 447.756 205.621C447.577 205.748 447.363 205.817 447.144 205.818C447.003 205.817 446.863 205.789 446.734 205.734Z" fill="#6C63FF"/>
    <path d="M48.555 204.738H42.6076V202.932C44.4869 201.625 46.1521 201.738 48.3425 203.039L48.555 204.738Z" fill="#6C63FF"/>
    <path d="M41.2306 236.806H39.9284L39.7337 231.784H41.2306V236.806Z" fill="#FFB8B8"/>
    <path d="M41.5625 238.068L37.3643 238.068V238.015C37.3643 237.801 37.4065 237.588 37.4886 237.39C37.5708 237.192 37.6911 237.011 37.8429 236.86C37.9946 236.708 38.1747 236.588 38.373 236.506C38.5713 236.423 38.7837 236.381 38.9983 236.381H38.9984L41.5626 236.381L41.5625 238.068Z" fill="#2F2E41"/>
    <path d="M48.5643 236.806H49.8659L50.0606 231.784H48.5637L48.5643 236.806Z" fill="#FFB8B8"/>
    <path d="M48.232 236.381L50.7961 236.381H50.7962C51.0108 236.381 51.2233 236.423 51.4216 236.506C51.6198 236.588 51.8 236.708 51.9517 236.86C52.1034 237.011 52.2238 237.192 52.3059 237.39C52.388 237.588 52.4303 237.801 52.4303 238.015V238.068L48.2321 238.068L48.232 236.381Z" fill="#2F2E41"/>
    <path d="M48.5983 236.163C48.4897 236.162 48.3844 236.125 48.2996 236.057C48.2148 235.989 48.1556 235.895 48.1316 235.789L44.9045 221.713C44.8974 221.677 44.878 221.645 44.8495 221.622C44.8211 221.599 44.7855 221.587 44.749 221.588H44.7482C44.7116 221.587 44.676 221.6 44.6476 221.623C44.6192 221.646 44.5999 221.678 44.5932 221.714L41.6296 235.695C41.6065 235.802 41.5476 235.898 41.4625 235.967C41.3775 236.036 41.2715 236.074 41.1621 236.074H39.7504C39.6852 236.074 39.6208 236.061 39.561 236.035C39.5012 236.009 39.4473 235.971 39.4026 235.924C39.3579 235.877 39.3234 235.82 39.3012 235.759C39.2789 235.698 39.2695 235.633 39.2733 235.568L40.3248 217.847L40.7479 217.722L40.7558 217.722L49.067 217.795L50.8371 235.496C50.8433 235.559 50.8369 235.623 50.8182 235.684C50.7994 235.744 50.7688 235.8 50.7282 235.849C50.6875 235.898 50.6375 235.938 50.5811 235.967C50.5248 235.996 50.4632 236.014 50.4 236.019L48.6366 236.161C48.6237 236.162 48.611 236.163 48.5983 236.163Z" fill="#2F2E41"/>
    <path d="M45.1661 201.502C46.6067 201.502 47.7745 200.334 47.7745 198.894C47.7745 197.453 46.6067 196.285 45.1661 196.285C43.7255 196.285 42.5577 197.453 42.5577 198.894C42.5577 200.334 43.7255 201.502 45.1661 201.502Z" fill="#FFB8B8"/>
    <path d="M43.5682 219.79C43.1106 219.796 42.6548 219.732 42.2165 219.6C41.8267 219.483 41.465 219.286 41.1538 219.024C40.8426 218.761 40.5885 218.438 40.407 218.073C40.3495 217.964 40.3367 217.836 40.3714 217.717C40.6591 216.735 42.0492 211.632 41.1623 207.575C41.0371 207.011 41.0267 206.428 41.1317 205.86C41.2367 205.292 41.4549 204.752 41.7735 204.27C42.0846 203.792 42.4887 203.382 42.9618 203.064C43.4349 202.746 43.9672 202.526 44.527 202.418V202.418C44.6741 202.389 44.822 202.366 44.9666 202.348C45.5854 202.272 46.2134 202.333 46.8056 202.528C47.3979 202.723 47.9397 203.046 48.3924 203.475C48.8586 203.912 49.2223 204.447 49.4576 205.041C49.6929 205.635 49.7939 206.274 49.7535 206.912L49.0718 217.851C49.0671 217.933 49.0412 218.012 48.9965 218.081C48.9519 218.15 48.8901 218.206 48.8171 218.244C48.032 218.656 45.6736 219.79 43.5682 219.79Z" fill="#3F3D56"/>
    <path d="M48.1128 196.974C47.8419 196.293 47.3455 195.725 46.7067 195.366C46.0679 195.007 45.3252 194.878 44.6025 195L45.425 195.664C44.4031 195.699 43.3275 195.626 42.5979 196.342C42.8302 196.336 43.1346 196.832 43.3669 196.826C43.1495 196.841 42.9403 196.915 42.7609 197.038C42.5815 197.162 42.4386 197.332 42.3471 197.529C42.1694 197.93 42.1279 198.377 42.2287 198.803C42.4919 199.431 42.798 200.039 43.1449 200.624C43.1146 199.586 45.1573 197.111 46.1548 197.369C45.648 197.558 45.2083 197.891 44.891 198.329C45.5696 197.987 46.3371 197.861 47.0895 197.969C47.2613 198.009 47.4385 198.019 47.6136 197.999C47.721 197.977 47.821 197.929 47.9043 197.858C47.9876 197.787 48.0513 197.696 48.0894 197.594C48.1274 197.491 48.1386 197.38 48.1217 197.272C48.1048 197.164 48.0605 197.062 47.993 196.976L48.1128 196.974Z" fill="#2F2E41"/>
    <path d="M43.3885 219.133C43.3226 219.133 43.2574 219.119 43.1971 219.093L38.248 216.933C38.1429 216.888 38.0575 216.806 38.0077 216.703C37.9579 216.6 37.9469 216.483 37.9768 216.372L41.2532 203.996C41.3141 203.765 41.4203 203.55 41.5656 203.361C41.711 203.172 41.8925 203.014 42.0996 202.897C42.3067 202.779 42.5352 202.704 42.7717 202.675C43.0083 202.647 43.2481 202.666 43.4771 202.732L44.7872 203.105L43.8649 218.683C43.8602 218.76 43.837 218.835 43.7973 218.901C43.7577 218.967 43.7027 219.022 43.637 219.062C43.5623 219.109 43.4763 219.133 43.3885 219.133V219.133Z" fill="#6C63FF"/>
    <path d="M52.5482 216.372L52.3304 215.551L52.015 214.358L51.8631 213.785L51.5477 212.595L49.2718 203.995C49.2111 203.765 49.105 203.549 48.9597 203.36C48.8144 203.171 48.6328 203.014 48.4257 202.896C48.2185 202.778 47.99 202.703 47.7534 202.675C47.5168 202.647 47.2769 202.666 47.0479 202.732L45.7385 203.105L46.3873 214.062L46.4543 215.206L46.4968 215.927V215.928L46.5647 217.066L46.6603 218.683C46.6681 218.805 46.7217 218.919 46.8101 219.002C46.8986 219.086 47.0155 219.133 47.1371 219.134C47.2029 219.133 47.268 219.119 47.3283 219.093L52.2773 216.933C52.3825 216.888 52.4679 216.806 52.5177 216.703C52.5674 216.6 52.5783 216.483 52.5482 216.372Z" fill="#6C63FF"/>
    <path d="M51.8632 213.785L46.4541 215.206L46.3871 214.063L51.5476 212.594L51.8632 213.785Z" fill="#CCCCCC"/>
    <path d="M52.3304 215.551L46.5646 217.066L46.4965 215.928V215.927L52.0149 214.358L52.3304 215.551Z" fill="#CCCCCC"/>
    <path d="M44.0714 214.309L44.0044 215.431L38.6995 213.851L39.0105 212.676L44.0714 214.309Z" fill="#CCCCCC"/>
    <path d="M43.9608 216.17L38.5478 214.423L38.2363 215.601L43.895 217.287L43.9608 216.17Z" fill="#CCCCCC"/>
    <path d="M38.6419 217.344C38.8033 217.302 38.9534 217.225 39.0818 217.119C39.2103 217.012 39.3138 216.879 39.3851 216.728C39.4564 216.578 39.4938 216.413 39.4946 216.246C39.4955 216.079 39.4597 215.915 39.3899 215.763L41.9347 207.774L40.1302 207.396L37.797 215.229C37.5504 215.363 37.3614 215.583 37.2661 215.847C37.1707 216.111 37.1756 216.401 37.2797 216.662C37.3839 216.923 37.58 217.136 37.8311 217.262C38.0821 217.388 38.3706 217.417 38.6419 217.344V217.344Z" fill="#FFB8B8"/>
    <path d="M42.0054 203.846C42.5235 203.899 42.815 204.482 42.6861 205.207L42.0679 208.688C42.0216 208.949 41.8068 209.156 41.6283 209.111L39.5371 208.589C39.3762 208.548 39.317 208.32 39.4082 208.091L40.6635 204.942C40.7485 204.644 40.9226 204.379 41.1625 204.183C41.4024 203.988 41.6966 203.87 42.0054 203.846Z" fill="#3F3D56"/>
    <path d="M45.1565 194.011C46.0393 194.011 46.8874 194.355 47.5212 194.97C48.1551 195.584 48.5248 196.421 48.5522 197.304H49.1922C49.2485 197.304 49.3025 197.326 49.3424 197.366C49.3822 197.406 49.4046 197.46 49.4046 197.516V198.366C49.4046 198.422 49.3822 198.476 49.3424 198.516C49.3025 198.556 49.2485 198.578 49.1922 198.578H41.9704C41.9141 198.578 41.86 198.556 41.8202 198.516C41.7804 198.476 41.758 198.422 41.758 198.366V197.41C41.758 196.964 41.8459 196.522 42.0167 196.109C42.1875 195.697 42.4378 195.322 42.7534 195.007C43.069 194.691 43.4436 194.441 43.8559 194.27C44.2682 194.099 44.7102 194.011 45.1565 194.011V194.011Z" fill="#6C63FF"/>
    <path d="M45.5626 215.019H44.0613C44.0132 215.019 43.9667 215.001 43.931 214.969C43.8953 214.936 43.873 214.892 43.8685 214.844L43.568 211.764H46.0559L45.7554 214.844C45.7509 214.892 45.7286 214.936 45.6929 214.969C45.6572 215.001 45.6107 215.019 45.5626 215.019Z" fill="#E6E6E6"/>
    <path d="M46.0519 212.151H43.572C43.5206 212.151 43.4714 212.131 43.435 212.094C43.3987 212.058 43.3783 212.009 43.3782 211.958V211.493C43.3783 211.441 43.3987 211.392 43.435 211.356C43.4714 211.319 43.5206 211.299 43.572 211.299H46.0519C46.1033 211.299 46.1525 211.319 46.1889 211.356C46.2252 211.392 46.2456 211.441 46.2457 211.493V211.958C46.2456 212.009 46.2252 212.058 46.1889 212.094C46.1525 212.131 46.1033 212.151 46.0519 212.151V212.151Z" fill="#CCCCCC"/>
    <path d="M44.8442 213.367C44.9025 213.374 44.9603 213.385 45.0169 213.401L49.015 209.972L48.7813 208.714L50.6338 208.113L51.2639 210.3C51.3148 210.477 51.3071 210.665 51.2418 210.837C51.1765 211.009 51.0572 211.155 50.9018 211.253L45.8384 214.458C45.842 214.684 45.7766 214.906 45.6508 215.094C45.5251 215.283 45.3451 215.428 45.1346 215.512C44.9242 215.595 44.6933 215.612 44.4728 215.561C44.2522 215.51 44.0524 215.394 43.8998 215.226C43.7473 215.059 43.6494 214.849 43.619 214.625C43.5886 214.4 43.6272 214.172 43.7297 213.97C43.8323 213.769 43.9938 213.603 44.1929 213.495C44.3919 213.387 44.6191 213.342 44.8442 213.367H44.8442Z" fill="#FFB8B8"/>
    <path d="M49.0254 204.134C49.5789 203.979 50.1319 204.4 50.3172 205.118L51.2065 208.562C51.2732 208.82 51.1437 209.095 50.9415 209.124L48.5725 209.465C48.3902 209.491 48.2296 209.304 48.2229 209.058L48.1309 205.668C48.0957 205.35 48.1636 205.03 48.3247 204.753C48.4858 204.477 48.7314 204.26 49.0254 204.134Z" fill="#3F3D56"/>
    <path d="M75.9536 213.452H74.1499C74.092 213.452 74.0362 213.43 73.9933 213.392C73.9504 213.353 73.9237 213.299 73.9182 213.242L73.5572 209.541H76.5463L76.1852 213.241C76.1798 213.299 76.153 213.353 76.1102 213.392C76.0673 213.43 76.0114 213.452 75.9536 213.452V213.452Z" fill="#E6E6E6"/>
    <path d="M76.5415 210.007H73.562C73.5003 210.007 73.4411 209.982 73.3975 209.938C73.3538 209.895 73.3293 209.836 73.3292 209.774V209.215C73.3293 209.153 73.3538 209.094 73.3975 209.051C73.4411 209.007 73.5003 208.982 73.562 208.982H76.5415C76.6032 208.982 76.6624 209.007 76.706 209.051C76.7497 209.094 76.7742 209.153 76.7743 209.215V209.774C76.7742 209.836 76.7497 209.895 76.706 209.938C76.6624 209.982 76.6032 210.007 76.5415 210.007V210.007Z" fill="#CCCCCC"/>
    <path d="M93.6737 235.183C92.3632 233.44 91.3272 231.507 90.6017 229.45C90.5597 229.327 90.5627 229.193 90.6102 229.072C90.6577 228.951 90.7465 228.851 90.861 228.789L95.3454 226.386C95.4179 226.347 95.4984 226.325 95.5808 226.322C95.6632 226.318 95.7452 226.334 95.8207 226.367C95.8976 226.4 95.9659 226.451 96.0203 226.515C96.0747 226.578 96.1139 226.654 96.1348 226.735C96.6567 228.717 97.6378 230.548 98.9987 232.08C99.0548 232.142 99.0958 232.217 99.1188 232.297C99.1417 232.378 99.146 232.463 99.1312 232.545C99.117 232.627 99.0845 232.703 99.0361 232.77C98.9877 232.837 98.9247 232.892 98.8519 232.93L94.3675 235.333C94.2528 235.394 94.1201 235.413 93.993 235.385C93.866 235.358 93.7528 235.286 93.6737 235.183Z" fill="#CCCCCC"/>
    <path d="M93.9797 234.953C94.0038 234.983 94.0377 235.004 94.0755 235.012C94.1132 235.02 94.1526 235.014 94.1866 234.996L98.671 232.593C98.6928 232.582 98.7117 232.565 98.7261 232.546C98.7406 232.526 98.7502 232.503 98.7543 232.479C98.759 232.453 98.7577 232.427 98.7505 232.402C98.7433 232.377 98.7304 232.354 98.7129 232.335C97.3118 230.757 96.3018 228.872 95.7645 226.832C95.7583 226.807 95.7463 226.783 95.7295 226.764C95.7128 226.744 95.6916 226.728 95.6678 226.718C95.6453 226.708 95.6208 226.703 95.5963 226.704C95.5717 226.705 95.5477 226.712 95.5261 226.724L91.0418 229.127C91.0078 229.145 90.9813 229.175 90.9669 229.21C90.9525 229.246 90.951 229.286 90.9627 229.323C91.6752 231.342 92.6927 233.241 93.9797 234.953V234.953Z" fill="white"/>
    <path d="M95.6398 229.815L93.1974 230.893C93.1045 230.934 92.9992 230.937 92.9045 230.9C92.8099 230.863 92.7337 230.791 92.6926 230.698L92.6322 230.561C92.5913 230.468 92.589 230.363 92.6256 230.268C92.6623 230.174 92.735 230.097 92.8278 230.056L95.2702 228.978C95.3631 228.937 95.4684 228.935 95.563 228.972C95.6577 229.008 95.7339 229.081 95.775 229.174L95.8354 229.311C95.8762 229.404 95.8786 229.509 95.8419 229.603C95.8053 229.698 95.7326 229.774 95.6398 229.815V229.815Z" fill="#CCCCCC"/>
    <path d="M96.5329 231.474L94.0906 232.552C93.9977 232.593 93.8924 232.596 93.7977 232.559C93.7031 232.522 93.6269 232.449 93.5858 232.357L93.5254 232.22C93.4845 232.127 93.4821 232.022 93.5188 231.927C93.5555 231.832 93.6282 231.756 93.721 231.715L96.1634 230.637C96.2563 230.596 96.3616 230.594 96.4562 230.63C96.5508 230.667 96.627 230.74 96.6681 230.833L96.7285 230.969C96.7694 231.062 96.7718 231.168 96.7351 231.262C96.6984 231.357 96.6257 231.433 96.5329 231.474V231.474Z" fill="#CCCCCC"/>
    <path d="M90.8047 230.092C90.6362 229.984 90.4935 229.84 90.3867 229.67C90.2798 229.5 90.2114 229.31 90.1864 229.111C90.1613 228.912 90.1801 228.71 90.2415 228.519C90.3028 228.329 90.4053 228.154 90.5416 228.007L89.5116 213.39L92.4786 213.677L92.5601 227.992C92.7916 228.237 92.9251 228.559 92.9353 228.896C92.9455 229.233 92.8316 229.563 92.6152 229.822C92.3988 230.08 92.095 230.251 91.7614 230.301C91.4277 230.351 91.0873 230.276 90.8047 230.092V230.092Z" fill="#A0616A"/>
    <path d="M90.1833 218.301C90.1138 218.251 90.0564 218.186 90.0154 218.111C89.9743 218.036 89.9507 217.953 89.9461 217.867L89.7287 213.928C89.7072 213.537 89.831 213.153 90.0761 212.848C90.3213 212.544 90.6705 212.341 91.0564 212.279C91.4423 212.216 91.8376 212.299 92.1661 212.511C92.4946 212.723 92.7329 213.049 92.8352 213.427L93.7902 216.949C93.8299 217.096 93.8096 217.252 93.7339 217.385C93.6582 217.517 93.5332 217.613 93.3863 217.653L90.6697 218.39C90.5872 218.412 90.5006 218.416 90.4164 218.401C90.3322 218.385 90.2526 218.351 90.1833 218.301Z" fill="#3F3D56"/>
    <path d="M85.1261 248.063L83.5623 248.062L82.8179 242.029H85.1267L85.1261 248.063Z" fill="#A0616A"/>
    <path d="M82.0954 247.615H85.4616V249.515H80.5453V249.165C80.5453 248.962 80.5854 248.76 80.6633 248.572C80.7412 248.384 80.8554 248.213 80.9993 248.069C81.1433 247.925 81.3141 247.811 81.5022 247.733C81.6903 247.655 81.8919 247.615 82.0954 247.615V247.615Z" fill="#2F2E41"/>
    <path d="M90.9957 248.063L89.4318 248.062L88.6874 242.029H90.9962L90.9957 248.063Z" fill="#A0616A"/>
    <path d="M87.9648 247.615H91.331V249.515H86.4147V249.165C86.4147 248.962 86.4548 248.76 86.5327 248.572C86.6106 248.384 86.7247 248.213 86.8687 248.069C87.0126 247.925 87.1835 247.811 87.3716 247.733C87.5597 247.655 87.7613 247.615 87.9648 247.615V247.615Z" fill="#2F2E41"/>
    <path d="M85.0526 245.023L83.3305 244.94C83.1838 244.934 83.0453 244.871 82.9436 244.765C82.8419 244.659 82.7846 244.518 82.7836 244.371C82.3296 237.364 81.7009 229.85 82.6634 226.947C82.6629 226.864 82.6802 226.782 82.7142 226.707C82.7482 226.632 82.7981 226.565 82.8604 226.51C82.9228 226.456 82.9961 226.416 83.0755 226.392C83.1548 226.369 83.2382 226.363 83.3201 226.375L90.2094 227.375C90.3456 227.394 90.4702 227.461 90.5606 227.565C90.6509 227.669 90.7008 227.801 90.7011 227.939C91.5807 231.376 91.6205 237.608 91.5872 244.084C91.5878 244.16 91.5733 244.235 91.5447 244.305C91.5161 244.375 91.4739 244.439 91.4205 244.493C91.3672 244.547 91.3037 244.589 91.2337 244.618C91.1638 244.647 91.0888 244.662 91.013 244.662H89.1565C89.0195 244.663 88.8869 244.614 88.7828 244.525C88.6787 244.436 88.61 244.313 88.5893 244.178L87.4439 236.896C87.4271 236.789 87.3724 236.693 87.2898 236.623C87.2072 236.554 87.1023 236.517 86.9944 236.519C86.8866 236.521 86.7832 236.562 86.7032 236.634C86.6232 236.706 86.5721 236.805 86.5593 236.912L85.65 244.517C85.6329 244.657 85.5655 244.785 85.4605 244.878C85.3555 244.971 85.2202 245.023 85.0798 245.023C85.0708 245.023 85.0617 245.023 85.0526 245.023Z" fill="#2F2E41"/>
    <path d="M86.2648 227.94C85.2592 227.349 84.1448 226.967 82.9882 226.817C82.9122 226.81 82.8384 226.787 82.7715 226.751C82.7045 226.714 82.6457 226.664 82.5986 226.604C82.5504 226.543 82.5151 226.474 82.4946 226.399C82.4742 226.324 82.4692 226.246 82.4798 226.17L84.1305 213.914C84.2256 213.197 84.5025 212.516 84.935 211.937C85.3674 211.357 85.941 210.898 86.6012 210.602C87.2403 210.308 87.9439 210.183 88.645 210.238C89.3462 210.293 90.0217 210.526 90.6071 210.916C90.6637 210.954 90.7192 210.992 90.7737 211.031C91.4479 211.525 91.9608 212.208 92.2477 212.993C92.5347 213.778 92.5828 214.63 92.386 215.443C91.3737 219.584 91.026 226.373 90.9666 227.692C90.9619 227.804 90.9241 227.913 90.8578 228.004C90.7916 228.095 90.6999 228.164 90.5943 228.203C89.9715 228.429 89.3142 228.546 88.6515 228.549C87.8169 228.554 86.995 228.344 86.2648 227.94V227.94Z" fill="#3F3D56"/>
    <path d="M87.6456 208.938C89.3764 208.938 90.7795 207.535 90.7795 205.804C90.7795 204.073 89.3764 202.67 87.6456 202.67C85.9148 202.67 84.5117 204.073 84.5117 205.804C84.5117 207.535 85.9148 208.938 87.6456 208.938Z" fill="#A0616A"/>
    <path d="M89.8633 208.284C89.7322 208.425 89.5636 208.526 89.3772 208.575C89.1908 208.623 88.9943 208.618 88.8109 208.559C88.6274 208.5 88.4647 208.39 88.3417 208.241C88.2188 208.093 88.1407 207.912 88.1167 207.721C88.1107 207.655 88.1112 207.589 88.118 207.523C88.2322 207.16 88.301 206.785 88.3229 206.406C88.3111 206.307 88.2742 206.212 88.2157 206.132C87.7498 205.508 86.6562 206.411 86.2165 205.846C85.9469 205.5 86.2638 204.954 86.0569 204.567C85.7839 204.057 84.9751 204.308 84.4679 204.029C83.9036 203.717 83.9373 202.852 84.3088 202.325C84.5506 202.014 84.858 201.76 85.2092 201.581C85.5604 201.402 85.9467 201.303 86.3405 201.291C87.1292 201.272 87.9125 201.425 88.6363 201.739C89.4911 202.017 90.2454 202.54 90.8055 203.243C91.0953 203.704 91.2789 204.223 91.3431 204.764C91.4073 205.305 91.3505 205.853 91.1767 206.369C90.8702 207.088 90.4237 207.739 89.8633 208.284Z" fill="#2F2E41"/>
    <path d="M92.3451 211.33C92.2902 211.073 91.8194 210.72 91.1457 210.433C90.0628 209.995 88.8916 209.818 87.7276 209.918C86.5635 210.018 85.4394 210.391 84.447 211.008C84.3777 211.011 84.3116 211.038 84.2588 211.083C84.206 211.128 84.1695 211.189 84.1548 211.256L81.8886 221.279L81.5939 222.584L81.3987 223.448L81.1039 224.75L80.947 225.445C80.937 225.489 80.9365 225.536 80.9458 225.58C80.955 225.625 80.9736 225.667 81.0004 225.704C81.0272 225.741 81.0616 225.771 81.1013 225.794C81.1409 225.816 81.1849 225.83 81.2303 225.834L91.0156 226.679C91.0245 226.679 91.0347 226.68 91.0436 226.68C91.1244 226.68 91.2019 226.649 91.2606 226.593C91.3194 226.538 91.3549 226.462 91.3601 226.382L91.4532 224.964L91.5528 223.448L91.5961 222.791L91.6944 221.279L92.3464 211.347V211.338L92.3451 211.33Z" fill="#6C63FF"/>
    <path d="M76.2891 211.961C76.3048 212.03 76.315 212.1 76.3197 212.171L81.8008 215.333L83.1331 214.566L84.5534 216.425L81.7033 218.456L75.4501 213.523C75.1951 213.618 74.9173 213.632 74.6539 213.565C74.3904 213.497 74.1536 213.352 73.9751 213.146C73.7966 212.941 73.6847 212.687 73.6545 212.416C73.6242 212.146 73.6769 211.873 73.8056 211.633C73.9342 211.394 74.1328 211.199 74.3749 211.075C74.6169 210.951 74.891 210.904 75.1606 210.94C75.4302 210.975 75.6826 211.092 75.8842 211.274C76.0857 211.457 76.227 211.697 76.2891 211.961V211.961Z" fill="#A0616A"/>
    <path d="M81.9966 215.064C81.9875 214.979 81.9976 214.893 82.0261 214.812C82.0547 214.731 82.101 214.658 82.1616 214.598L84.9513 211.807C85.2277 211.531 85.5966 211.367 85.987 211.346C86.3774 211.326 86.7615 211.45 87.0654 211.696C87.3692 211.942 87.5712 212.292 87.6325 212.678C87.6937 213.064 87.6098 213.459 87.397 213.787L85.4104 216.848C85.3274 216.976 85.1971 217.065 85.0482 217.097C84.8993 217.129 84.744 217.1 84.6162 217.017L82.2551 215.485C82.1832 215.439 82.1227 215.377 82.078 215.304C82.0332 215.231 82.0054 215.149 81.9966 215.064Z" fill="#3F3D56"/>
    <path d="M91.6943 221.279L91.5963 222.791L81.5936 222.585L81.8885 221.279H91.6943Z" fill="#CCCCCC"/>
    <path d="M91.5528 223.448L91.4532 224.964L81.104 224.75L81.3989 223.448H91.5528Z" fill="#CCCCCC"/>
    <path d="M87.707 199.715C86.6463 199.715 85.6274 200.128 84.8659 200.867C84.1044 201.605 83.6601 202.611 83.6272 203.671H82.8583C82.7907 203.671 82.7258 203.698 82.6779 203.746C82.63 203.793 82.6032 203.858 82.6031 203.926V204.947C82.6032 205.014 82.63 205.079 82.6779 205.127C82.7258 205.175 82.7907 205.202 82.8583 205.202H91.5348C91.6025 205.202 91.6674 205.175 91.7153 205.127C91.7631 205.079 91.79 205.014 91.79 204.947V203.798C91.79 203.262 91.6844 202.731 91.4792 202.236C91.274 201.741 90.9733 201.29 90.5941 200.911C90.215 200.532 89.7649 200.231 89.2695 200.026C88.7741 199.821 88.2432 199.715 87.707 199.715Z" fill="#6C63FF"/>
    <path d="M110.687 241.255H109.812C109.806 241.149 108.631 238.391 108.631 238.391L107.921 236.673L107.452 235.528L106.741 233.81L105.928 231.835C105.907 231.746 105.857 231.666 105.785 231.609C105.714 231.552 105.625 231.521 105.533 231.521C105.442 231.521 105.353 231.552 105.281 231.609C105.209 231.666 105.159 231.746 105.138 231.835L104.325 233.81L103.615 235.528L103.145 236.673L102.435 238.391C102.435 238.391 101.26 241.149 101.255 241.255H100.38C100.152 241.255 99.9332 241.345 99.7721 241.506C99.6111 241.667 99.5206 241.886 99.5206 242.113C99.5206 242.341 99.6111 242.56 99.7721 242.721C99.9332 242.882 100.152 242.972 100.38 242.972H110.687C110.915 242.972 111.133 242.882 111.294 242.721C111.455 242.56 111.546 242.341 111.546 242.113C111.546 241.886 111.455 241.667 111.294 241.506C111.133 241.345 110.915 241.255 110.687 241.255Z" fill="#FF6584"/>
    <path d="M110.114 256.143H109.775C109.806 256.07 108.299 252.215 108.299 252.215L107.394 250.01L106.787 248.533L105.882 246.328L104.898 243.94C104.87 243.827 104.805 243.727 104.714 243.656C104.622 243.584 104.51 243.545 104.394 243.545C104.278 243.545 104.165 243.584 104.073 243.656C103.982 243.727 103.917 243.827 103.89 243.94L102.905 246.328L102 248.533L101.387 250.01L100.483 252.215C100.483 252.215 98.9812 256.07 99.0122 256.143H98.6616C98.4338 256.143 98.2153 256.233 98.0542 256.394C97.8932 256.556 97.8027 256.774 97.8027 257.002C97.8027 257.23 97.8932 257.448 98.0542 257.609C98.2153 257.77 98.4338 257.861 98.6616 257.861H110.114C110.342 257.861 110.561 257.77 110.722 257.609C110.883 257.448 110.973 257.23 110.973 257.002C110.973 256.774 110.883 256.556 110.722 256.394C110.561 256.233 110.342 256.143 110.114 256.143Z" fill="#FF6584"/>
    <path d="M107.451 235.528H103.615L104.325 233.81H106.741L107.451 235.528Z" fill="#F2F2F2"/>
    <path d="M108.631 238.391H102.435L103.145 236.674H107.921L108.631 238.391Z" fill="#F2F2F2"/>
    <path d="M106.787 248.533H102L102.905 246.328H105.882L106.787 248.533Z" fill="#F2F2F2"/>
    <path d="M108.299 252.215H100.482L101.387 250.01H107.394L108.299 252.215Z" fill="#F2F2F2"/>
    <path d="M236.485 208.469C236.574 208.382 236.642 208.276 236.685 208.159C236.728 208.043 236.745 207.918 236.735 207.794C236.724 207.67 236.687 207.55 236.625 207.442C236.564 207.334 236.479 207.241 236.377 207.169L235.948 204.337L234.183 204.892L235.15 207.419C235.041 207.598 235.001 207.81 235.038 208.016C235.075 208.223 235.187 208.408 235.351 208.537C235.516 208.667 235.722 208.731 235.931 208.719C236.14 208.706 236.337 208.617 236.485 208.469V208.469Z" fill="#FFB8B8"/>
    <path d="M234.667 207.137L233.579 202.053C233.473 201.566 233.493 201.06 233.639 200.583C233.784 200.106 234.05 199.675 234.41 199.33C235.803 197.988 237.594 196.295 238.213 195.857C238.793 195.444 239.496 195.236 240.208 195.268L240.223 195.27L241.16 196.155L239.12 199.513L236.023 201.453L236.368 206.436L234.667 207.137Z" fill="#6C63FF"/>
    <path d="M238.48 200.228H233.911C233.713 200.228 233.553 200.388 233.553 200.586C233.553 200.784 233.713 200.945 233.911 200.945H238.48C238.677 200.945 238.838 200.784 238.838 200.586C238.838 200.388 238.677 200.228 238.48 200.228Z" fill="#CCCCCC"/>
    <path d="M238.48 208.021H233.911C233.713 208.021 233.553 208.181 233.553 208.379C233.553 208.577 233.713 208.738 233.911 208.738H238.48C238.677 208.738 238.838 208.577 238.838 208.379C238.838 208.181 238.677 208.021 238.48 208.021Z" fill="#CCCCCC"/>
    <path d="M236.24 227.548C236.195 227.548 236.152 227.531 236.119 227.501C236.086 227.471 236.066 227.429 236.062 227.385L233.778 200.602C233.776 200.579 233.778 200.555 233.785 200.533C233.792 200.51 233.804 200.489 233.819 200.471C233.834 200.453 233.853 200.438 233.873 200.427C233.894 200.416 233.917 200.409 233.941 200.407C233.964 200.405 233.988 200.408 234.01 200.415C234.033 200.422 234.054 200.433 234.072 200.449C234.09 200.464 234.105 200.482 234.115 200.503C234.126 200.524 234.133 200.547 234.135 200.571L236.238 225.315L238.281 200.571C238.283 200.547 238.289 200.525 238.3 200.504C238.311 200.483 238.326 200.464 238.344 200.449C238.362 200.434 238.382 200.422 238.405 200.415C238.427 200.408 238.451 200.405 238.475 200.407C238.498 200.409 238.521 200.416 238.542 200.427C238.563 200.438 238.581 200.452 238.597 200.471C238.612 200.489 238.623 200.51 238.63 200.532C238.637 200.555 238.64 200.578 238.638 200.602L236.419 227.384C236.415 227.429 236.394 227.47 236.361 227.501C236.328 227.531 236.285 227.548 236.24 227.548L236.24 227.548Z" fill="#CCCCCC"/>
    <path d="M241.367 194.196C242.665 194.196 243.717 193.144 243.717 191.846C243.717 190.548 242.665 189.496 241.367 189.496C240.069 189.496 239.017 190.548 239.017 191.846C239.017 193.144 240.069 194.196 241.367 194.196Z" fill="#FFB8B8"/>
    <path d="M234.362 226.474L233.245 226.118L234.087 221.637L235.737 222.162L234.362 226.474Z" fill="#FFB8B8"/>
    <path d="M234.3 227.465L230.702 226.318L230.732 226.225C230.846 225.867 231.098 225.57 231.431 225.397C231.765 225.225 232.153 225.192 232.511 225.306L234.76 226.022L234.3 227.465Z" fill="#2F2E41"/>
    <path d="M242.495 226.45H241.322L240.763 221.925H242.495V226.45Z" fill="#FFB8B8"/>
    <path d="M239.104 227.495H242.701V226.16H240.43C240.079 226.161 239.741 226.3 239.493 226.549C239.244 226.798 239.104 227.135 239.104 227.487V227.495Z" fill="#2F2E41"/>
    <path d="M242.46 224.982L242.064 224.923C241.567 224.893 241.075 224.801 240.601 224.65C240.504 224.607 240.497 223.961 240.555 220.327C240.598 217.66 240.651 214.341 240.548 212.559C240.544 212.489 240.516 212.422 240.469 212.37C240.422 212.317 240.359 212.282 240.289 212.27C240.22 212.257 240.148 212.269 240.086 212.302C240.024 212.336 239.975 212.389 239.947 212.453C239.054 214.517 237.555 219.135 236.563 222.19C236.218 223.253 235.945 224.093 235.773 224.596C235.739 224.691 235.672 224.771 235.583 224.819C235.494 224.867 235.391 224.88 235.293 224.856C234.477 224.652 234.531 224.565 233.369 224.264C233.268 224.238 233.181 224.175 233.126 224.087C233.072 223.998 233.053 223.893 233.075 223.791C233.285 222.799 237.134 206.718 237.428 205.19C237.438 205.137 237.458 205.088 237.488 205.043C237.517 204.999 237.555 204.96 237.599 204.931C237.643 204.901 237.693 204.88 237.745 204.87C237.797 204.859 237.851 204.859 237.903 204.87C238.77 205.044 239.297 205.23 240.153 205.409C241.077 205.602 242.033 205.802 242.965 205.988C243.057 206.007 243.141 206.058 243.199 206.132C243.459 206.41 243.779 206.625 244.134 206.76C244.378 206.877 243.825 206.866 244.037 207.034C244.898 207.716 243.66 221.553 242.912 224.678C242.888 224.776 242.829 224.862 242.745 224.918C242.662 224.974 242.56 224.997 242.46 224.982V224.982Z" fill="#2F2E41"/>
    <path d="M242.369 193.903C242.231 193.32 242.925 192.068 242.788 191.485C242.695 191.091 241.768 191.359 241.551 191.017C241.451 190.84 241.309 190.691 241.137 190.582C240.966 190.473 240.77 190.408 240.568 190.392C240.102 190.387 239.644 190.732 239.203 190.583C239.098 190.531 239.005 190.459 238.929 190.371C238.853 190.283 238.795 190.181 238.758 190.07C238.722 189.96 238.708 189.843 238.717 189.727C238.726 189.611 238.758 189.498 238.811 189.394C239.047 188.982 239.414 188.661 239.853 188.48C240.544 188.058 241.373 187.919 242.164 188.092C242.617 188.268 243.033 188.529 243.387 188.861C243.743 189.124 244.055 189.441 244.313 189.801C244.532 190.176 244.651 190.6 244.658 191.035C244.665 191.469 244.56 191.897 244.353 192.279C243.925 193.041 243.243 193.628 242.426 193.938" fill="#2F2E41"/>
    <path d="M236.598 207.452C236.851 207.028 237.236 205.043 237.711 201.71C238.035 199.435 238.316 197.123 238.456 195.943C238.467 195.847 238.502 195.756 238.558 195.678C238.614 195.599 238.688 195.536 238.775 195.495C238.866 195.451 238.956 195.409 239.046 195.37C240.122 194.878 241.317 194.704 242.489 194.868C243.661 195.033 244.761 195.53 245.66 196.3L245.67 196.31L245.673 196.324C245.678 196.35 246.164 198.966 245.169 200.733C244.189 202.477 244.177 207.096 244.177 207.142V207.201L244.12 207.185C242.595 206.749 236.701 207.512 236.642 207.52L236.55 207.532L236.598 207.452Z" fill="#6C63FF"/>
    <path d="M245.466 201.393H240.898C240.7 201.393 240.54 201.553 240.54 201.751C240.54 201.949 240.7 202.109 240.898 202.109H245.466C245.664 202.109 245.825 201.949 245.825 201.751C245.825 201.553 245.664 201.393 245.466 201.393Z" fill="#CCCCCC"/>
    <path d="M245.466 209.185H240.898C240.7 209.185 240.54 209.346 240.54 209.544C240.54 209.742 240.7 209.902 240.898 209.902H245.466C245.664 209.902 245.825 209.742 245.825 209.544C245.825 209.346 245.664 209.185 245.466 209.185Z" fill="#CCCCCC"/>
    <path d="M243.227 227.637C243.182 227.637 243.139 227.621 243.106 227.59C243.073 227.56 243.052 227.519 243.049 227.474L240.765 201.767C240.761 201.719 240.775 201.672 240.806 201.636C240.836 201.599 240.88 201.577 240.927 201.572C240.975 201.568 241.022 201.583 241.058 201.613C241.095 201.644 241.117 201.688 241.122 201.735L243.224 225.405L245.267 201.735C245.269 201.712 245.276 201.689 245.287 201.668C245.297 201.647 245.312 201.628 245.33 201.613C245.348 201.598 245.369 201.586 245.392 201.579C245.414 201.572 245.438 201.57 245.461 201.572C245.485 201.574 245.508 201.58 245.529 201.591C245.55 201.602 245.568 201.617 245.583 201.635C245.598 201.653 245.61 201.674 245.617 201.697C245.624 201.719 245.626 201.743 245.624 201.766L243.405 227.474C243.402 227.518 243.381 227.56 243.348 227.59C243.315 227.621 243.272 227.637 243.227 227.637L243.227 227.637Z" fill="#CCCCCC"/>
    <path d="M241.752 209.299C241.725 209.177 241.726 209.052 241.753 208.93C241.78 208.809 241.833 208.695 241.909 208.596C241.985 208.498 242.082 208.417 242.192 208.36C242.303 208.303 242.425 208.271 242.549 208.266L244.448 206.122L245.628 207.547L243.443 209.143C243.438 209.352 243.356 209.552 243.213 209.705C243.07 209.858 242.875 209.953 242.667 209.972C242.458 209.991 242.25 209.934 242.082 209.809C241.913 209.685 241.796 209.504 241.752 209.299H241.752Z" fill="#FFB8B8"/>
    <path d="M242.858 207.806L245.855 203.811L244.309 200.499L244.422 196.572L245.689 196.338L245.702 196.344C246.317 196.704 246.795 197.26 247.057 197.923C247.338 198.627 247.922 201.021 248.362 202.905C248.477 203.39 248.466 203.896 248.329 204.376C248.192 204.855 247.935 205.291 247.581 205.642L243.905 209.318L242.858 207.806Z" fill="#6C63FF"/>
    <path d="M230.295 226.526L234.395 227.513C234.475 227.534 234.559 227.527 234.634 227.492C234.708 227.457 234.768 227.397 234.803 227.323L238.325 217.959C238.341 217.923 238.349 217.884 238.349 217.845C238.349 217.806 238.341 217.767 238.326 217.731C238.308 217.69 238.282 217.654 238.25 217.624C238.218 217.594 238.18 217.57 238.138 217.555L235.055 216.378C235.007 216.359 234.955 216.351 234.902 216.354C234.85 216.357 234.799 216.371 234.753 216.395C234.713 216.415 234.677 216.443 234.649 216.478C234.62 216.512 234.6 216.553 234.588 216.596L234.588 216.597L232.412 224.85L232.38 224.852C231.705 224.892 231.063 225.159 230.559 225.611C230.455 225.737 230.377 225.883 230.332 226.041C230.286 226.199 230.274 226.364 230.295 226.526Z" fill="#CCCCCC"/>
    <path d="M233.265 221.277L233.246 221.455L236.984 221.851L237.003 221.673L233.265 221.277Z" fill="#B3B3B3"/>
    <path d="M232.939 222.753L232.865 222.916L235.873 224.27L235.947 224.106L232.939 222.753Z" fill="#B3B3B3"/>
    <path d="M237.396 220.418L233.85 219.244L233.924 219.081L237.469 220.254L237.396 220.418Z" fill="#B3B3B3"/>
    <path d="M237.755 219.612L234.209 217.9L234.282 217.737L237.828 219.448L237.755 219.612Z" fill="#B3B3B3"/>
    <path d="M232.626 224.156L232.51 224.292L235.066 226.475L235.182 226.339L232.626 224.156Z" fill="#B3B3B3"/>
    <path d="M231.9 224.88L231.737 224.954L232.764 227.217L232.927 227.143L231.9 224.88Z" fill="#B3B3B3"/>
    <path d="M331.823 209.219C331.671 209.184 331.529 209.116 331.406 209.019C331.284 208.923 331.183 208.801 331.113 208.662C331.042 208.523 331.003 208.37 330.998 208.214C330.993 208.058 331.023 207.903 331.084 207.76L327.151 198.874L329.401 198.308L332.559 207.22C332.793 207.339 332.976 207.54 333.071 207.784C333.167 208.029 333.17 208.3 333.079 208.547C332.989 208.793 332.811 208.998 332.579 209.121C332.348 209.245 332.079 209.28 331.823 209.219V209.219Z" fill="#A0616A"/>
    <path d="M327.881 201.658C327.818 201.63 327.762 201.589 327.717 201.537C327.672 201.486 327.638 201.425 327.618 201.359L326.931 199.059C326.78 198.74 326.763 198.375 326.882 198.043C327.001 197.711 327.247 197.441 327.566 197.29C327.884 197.14 328.249 197.123 328.581 197.242C328.913 197.361 329.183 197.607 329.334 197.925L330.664 199.934C330.702 199.991 330.727 200.056 330.737 200.124C330.748 200.192 330.744 200.261 330.725 200.327C330.707 200.393 330.674 200.455 330.63 200.507C330.585 200.56 330.53 200.602 330.468 200.631L328.279 201.655C328.217 201.684 328.149 201.7 328.081 201.7C328.012 201.701 327.944 201.687 327.881 201.658V201.658Z" fill="#6C63FF"/>
    <path d="M335.887 200.512L333.475 202.22C333.444 202.243 333.407 202.255 333.368 202.255C333.33 202.255 333.293 202.243 333.262 202.22L332.61 201.731C332.589 201.715 332.571 201.695 332.558 201.671C332.545 201.647 332.538 201.621 332.537 201.594C332.536 201.567 332.541 201.541 332.552 201.516C332.562 201.491 332.578 201.469 332.599 201.452L334.455 199.796C334.479 199.775 334.509 199.76 334.541 199.754C334.573 199.748 334.605 199.751 334.636 199.761L335.844 200.193C335.875 200.205 335.902 200.225 335.923 200.25C335.944 200.276 335.957 200.307 335.961 200.34C335.966 200.373 335.961 200.406 335.948 200.437C335.935 200.467 335.914 200.493 335.887 200.512V200.512Z" fill="#3F3D56"/>
    <path d="M335.691 200.351C335.697 200.335 335.696 200.317 335.689 200.301C335.682 200.286 335.669 200.274 335.653 200.268L334.565 199.878C334.554 199.874 334.543 199.873 334.531 199.876C334.52 199.878 334.509 199.883 334.501 199.89L332.826 201.383L332.817 201.393C332.812 201.4 332.809 201.407 332.807 201.415C332.805 201.423 332.805 201.432 332.806 201.44C332.808 201.448 332.811 201.456 332.815 201.463C332.819 201.47 332.825 201.476 332.832 201.48L333.418 201.921C333.429 201.929 333.442 201.933 333.456 201.933C333.47 201.933 333.483 201.928 333.494 201.92L335.668 200.381C335.678 200.373 335.686 200.363 335.691 200.351Z" fill="white"/>
    <path d="M327.095 225.976H328.312L328.892 221.28H327.095V225.976Z" fill="#A0616A"/>
    <path d="M326.784 225.579L329.182 225.579H329.182C329.383 225.579 329.581 225.618 329.767 225.695C329.952 225.772 330.121 225.884 330.263 226.026C330.404 226.168 330.517 226.336 330.594 226.522C330.671 226.707 330.71 226.906 330.71 227.107V227.156L326.784 227.156L326.784 225.579Z" fill="#2F2E41"/>
    <path d="M323.023 225.976H324.241L324.82 221.28H323.023V225.976Z" fill="#A0616A"/>
    <path d="M322.713 225.579L325.11 225.579H325.11C325.311 225.579 325.51 225.618 325.695 225.695C325.88 225.772 326.049 225.884 326.191 226.026C326.333 226.168 326.445 226.336 326.522 226.522C326.599 226.707 326.638 226.906 326.638 227.107V227.156L322.713 227.156L322.713 225.579Z" fill="#2F2E41"/>
    <path d="M322.765 224.541C322.681 224.446 322.635 224.323 322.633 224.197C322.343 221.211 323.132 205.514 324.957 204.174L324.968 204.163L330.309 203.241L330.408 203.34C330.416 203.479 331.387 217.237 328.706 224.259C328.673 224.343 328.616 224.415 328.541 224.465C328.467 224.516 328.379 224.543 328.289 224.543H327.223C327.161 224.543 327.101 224.53 327.044 224.506C326.988 224.481 326.937 224.445 326.895 224.4C326.853 224.354 326.821 224.301 326.801 224.243C326.781 224.184 326.773 224.123 326.778 224.061L327.641 210.913C327.644 210.875 327.632 210.838 327.609 210.809C327.585 210.779 327.551 210.76 327.514 210.754C327.477 210.748 327.439 210.757 327.408 210.779C327.377 210.8 327.355 210.833 327.347 210.87L324.916 224.214C324.895 224.308 324.844 224.393 324.772 224.456C324.699 224.519 324.608 224.557 324.512 224.565L323.112 224.669C323.101 224.669 323.09 224.67 323.079 224.67C322.961 224.67 322.848 224.623 322.765 224.541V224.541Z" fill="#2F2E41"/>
    <path d="M329.792 195.192C331.139 195.192 332.232 194.1 332.232 192.753C332.232 191.406 331.139 190.314 329.792 190.314C328.445 190.314 327.353 191.406 327.353 192.753C327.353 194.1 328.445 195.192 329.792 195.192Z" fill="#A0616A"/>
    <path d="M323.917 206.31C323.814 206.205 323.755 206.065 323.752 205.918L324.748 201.255C323.953 197.878 325.011 197.245 326.205 196.605L326.197 196.601L326.696 195.252C326.711 195.192 326.74 195.136 326.78 195.089C326.82 195.041 326.87 195.003 326.926 194.977C326.983 194.951 327.044 194.937 327.106 194.938C327.168 194.938 327.229 194.952 327.285 194.979L329.828 196.33C329.942 196.394 330.027 196.501 330.063 196.627C330.106 196.761 330.104 196.905 330.055 197.037L329.867 197.545C330.353 198.193 331.104 200.758 330.309 201.751L330.909 205.061C330.922 205.183 330.892 205.305 330.824 205.407C330.756 205.509 330.654 205.583 330.536 205.618L324.272 206.422C324.248 206.427 324.223 206.429 324.198 206.429C324.093 206.428 323.992 206.385 323.917 206.31V206.31Z" fill="#6C63FF"/>
    <path d="M333.037 200.962C332.997 201 332.96 201.04 332.926 201.084L328.013 200.744L327.486 199.67L325.761 200.254L326.509 202.246C326.569 202.407 326.68 202.544 326.825 202.636C326.97 202.729 327.141 202.772 327.313 202.759L332.9 202.335C333.024 202.507 333.197 202.637 333.396 202.708C333.596 202.779 333.812 202.788 334.016 202.733C334.221 202.678 334.404 202.562 334.541 202.401C334.678 202.239 334.762 202.04 334.783 201.829C334.804 201.619 334.761 201.407 334.658 201.221C334.556 201.036 334.399 200.887 334.21 200.792C334.02 200.698 333.806 200.664 333.597 200.694C333.387 200.725 333.192 200.818 333.037 200.962V200.962Z" fill="#A0616A"/>
    <path d="M327.829 200.761L325.688 201.474C325.627 201.495 325.562 201.502 325.499 201.495C325.435 201.488 325.373 201.467 325.318 201.434C325.263 201.401 325.215 201.357 325.179 201.304C325.142 201.251 325.118 201.191 325.107 201.128L324.716 198.912C324.614 198.599 324.64 198.259 324.788 197.966C324.937 197.673 325.195 197.45 325.507 197.347C325.82 197.244 326.16 197.269 326.453 197.417C326.747 197.565 326.97 197.823 327.074 198.135L328.087 200.136C328.116 200.193 328.132 200.256 328.135 200.32C328.137 200.384 328.126 200.448 328.102 200.508C328.077 200.567 328.04 200.62 327.993 200.664C327.946 200.708 327.89 200.741 327.829 200.761V200.761Z" fill="#6C63FF"/>
    <path d="M328.422 190.827C329.519 190.827 330.408 189.938 330.408 188.841C330.408 187.744 329.519 186.855 328.422 186.855C327.325 186.855 326.436 187.744 326.436 188.841C326.436 189.938 327.325 190.827 328.422 190.827Z" fill="#2F2E41"/>
    <path d="M332.101 193.055C332.294 193.093 332.493 193.076 332.676 193.006C332.77 192.953 332.849 192.879 332.909 192.79C332.968 192.7 333.005 192.598 333.018 192.491C333.388 190.033 331.297 190.235 331.05 190.128C330.894 190.037 330.747 189.93 330.612 189.809C330.264 189.616 329.867 189.529 329.47 189.558C329 189.514 328.527 189.572 328.082 189.728C327.694 189.909 327.372 190.206 327.159 190.578C326.949 190.948 326.795 191.348 326.702 191.763C326.555 192.233 326.528 192.733 326.624 193.216C326.725 193.577 326.937 193.897 327.23 194.131C327.522 194.365 327.88 194.502 328.254 194.523C328.194 194.233 328.231 193.933 328.36 193.666C328.488 193.4 328.7 193.184 328.964 193.05C329.383 192.844 329.86 192.787 330.316 192.889C330.612 192.949 330.912 192.987 331.213 193.001C331.509 193.012 331.864 193.03 332.101 193.055Z" fill="#2F2E41"/>
    <path d="M522.995 226.461C522.997 223.855 524.034 221.357 525.877 219.515C527.72 217.673 530.219 216.639 532.825 216.639C535.43 216.639 537.929 217.673 539.772 219.515C541.616 221.357 542.652 223.855 542.654 226.461" fill="#F2F2F2" fill-opacity="0.4"/>
    <path d="M532.825 226.461C532.754 226.461 532.687 226.433 532.637 226.383C532.587 226.333 532.559 226.266 532.559 226.195V221.015C532.559 220.944 532.587 220.877 532.637 220.827C532.687 220.777 532.754 220.749 532.825 220.749C532.895 220.749 532.963 220.777 533.012 220.827C533.062 220.877 533.09 220.944 533.09 221.015V226.195C533.09 226.266 533.062 226.333 533.012 226.383C532.963 226.433 532.895 226.461 532.825 226.461V226.461Z" fill="#CCCCCC"/>
    <path d="M532.824 224.681C532.761 224.681 532.7 224.658 532.652 224.617L529.464 221.88C529.437 221.858 529.415 221.83 529.399 221.799C529.383 221.768 529.373 221.734 529.37 221.699C529.367 221.664 529.371 221.629 529.382 221.595C529.393 221.562 529.41 221.531 529.433 221.504C529.456 221.478 529.484 221.456 529.515 221.44C529.547 221.424 529.581 221.415 529.616 221.412C529.651 221.41 529.686 221.414 529.719 221.425C529.753 221.437 529.783 221.454 529.81 221.477L532.998 224.213C533.039 224.249 533.068 224.296 533.082 224.348C533.095 224.401 533.093 224.456 533.074 224.507C533.055 224.558 533.021 224.602 532.976 224.633C532.932 224.664 532.879 224.681 532.824 224.681L532.824 224.681Z" fill="#CCCCCC"/>
    <path d="M553.28 226.461C553.282 223.855 554.319 221.357 556.162 219.515C558.005 217.673 560.504 216.639 563.11 216.639C565.715 216.639 568.214 217.673 570.058 219.515C571.901 221.357 572.937 223.855 572.939 226.461" fill="#F2F2F2" fill-opacity="0.4"/>
    <path d="M563.11 226.461C563.039 226.461 562.972 226.433 562.922 226.383C562.872 226.333 562.844 226.266 562.844 226.195V221.015C562.844 220.944 562.872 220.877 562.922 220.827C562.972 220.777 563.039 220.749 563.11 220.749C563.18 220.749 563.248 220.777 563.298 220.827C563.347 220.877 563.375 220.944 563.375 221.015V226.195C563.375 226.266 563.347 226.333 563.298 226.383C563.248 226.433 563.18 226.461 563.11 226.461V226.461Z" fill="#CCCCCC"/>
    <path d="M563.11 224.681C563.046 224.681 562.985 224.658 562.937 224.617L559.749 221.881C559.722 221.858 559.7 221.83 559.684 221.799C559.668 221.768 559.658 221.734 559.655 221.699C559.652 221.664 559.656 221.629 559.667 221.595C559.678 221.562 559.695 221.531 559.718 221.504C559.741 221.478 559.769 221.456 559.801 221.44C559.832 221.424 559.866 221.415 559.901 221.412C559.936 221.41 559.971 221.414 560.005 221.425C560.038 221.437 560.069 221.454 560.095 221.477L563.283 224.213C563.324 224.249 563.353 224.296 563.367 224.349C563.381 224.401 563.378 224.457 563.359 224.507C563.34 224.558 563.306 224.602 563.262 224.633C563.217 224.664 563.164 224.681 563.11 224.681V224.681Z" fill="#CCCCCC"/>
    </svg>
