<svg width="600" height="423" viewBox="0 0 600 423" fill="none" xmlns="http://www.w3.org/2000/svg">
    <path d="M132.957 42.3523H94.6936C91.015 42.3556 87.488 43.8184 84.8868 46.4196C82.2857 49.0207 80.8229 52.5477 80.8196 56.2263V97.7096C80.3304 97.6804 79.8412 97.6366 79.3591 97.5782C70.2943 96.6245 61.6761 93.1573 54.4763 87.5678C47.2765 81.9782 41.7814 74.4884 38.6105 65.9428C35.4396 57.3973 34.7191 48.1358 36.5301 39.2027C38.3412 30.2696 42.6118 22.02 48.8604 15.3841C55.1091 8.74823 63.0873 3.98994 71.8956 1.64571C80.7039 -0.69852 89.9919 -0.535455 98.7124 2.11653C107.433 4.76852 115.239 9.80395 121.251 16.6551C127.263 23.5062 131.241 31.9006 132.738 40.8918C132.818 41.3738 132.891 41.863 132.957 42.3523Z" fill="#E0E0FF"/>
    <path d="M584.665 40.8918H94.6933C90.6277 40.8963 86.73 42.5133 83.8552 45.3881C80.9804 48.2629 79.3633 52.1607 79.3589 56.2263V314.721C79.3633 318.787 80.9804 322.685 83.8552 325.559C86.73 328.434 90.6277 330.051 94.6933 330.056H584.665C588.731 330.051 592.629 328.434 595.504 325.559C598.378 322.685 599.995 318.787 600 314.721V56.2263C599.995 52.1607 598.378 48.2629 595.504 45.3881C592.629 42.5133 588.731 40.8963 584.665 40.8918ZM598.539 314.721C598.536 318.4 597.073 321.927 594.472 324.528C591.871 327.129 588.344 328.592 584.665 328.595H94.6933C91.0147 328.592 87.4878 327.129 84.8866 324.528C82.2854 321.927 80.8226 318.4 80.8193 314.721V56.2263C80.8226 52.5477 82.2854 49.0207 84.8866 46.4196C87.4878 43.8184 91.0147 42.3556 94.6933 42.3523H584.665C588.344 42.3556 591.871 43.8184 594.472 46.4196C597.073 49.0207 598.536 52.5477 598.539 56.2263V314.721Z" fill="#D9D9E1"/>
    <path d="M560.569 82.7838H118.791C118.597 82.7838 118.411 82.7069 118.274 82.5699C118.137 82.433 118.061 82.2472 118.061 82.0536C118.061 81.8599 118.137 81.6742 118.274 81.5372C118.411 81.4003 118.597 81.3234 118.791 81.3234H560.569C560.762 81.3234 560.948 81.4003 561.085 81.5372C561.222 81.6742 561.299 81.8599 561.299 82.0536C561.299 82.2472 561.222 82.433 561.085 82.5699C560.948 82.7069 560.762 82.7838 560.569 82.7838Z" fill="#D9D9E1"/>
    <path d="M243.656 298.657C243.463 298.657 243.277 298.58 243.14 298.443C243.003 298.306 242.926 298.12 242.926 297.926V57.6867C242.926 57.493 243.003 57.3073 243.14 57.1704C243.277 57.0334 243.463 56.9565 243.656 56.9565C243.85 56.9565 244.036 57.0334 244.173 57.1704C244.31 57.3073 244.387 57.493 244.387 57.6867V297.926C244.387 298.12 244.31 298.306 244.173 298.443C244.036 298.58 243.85 298.657 243.656 298.657V298.657Z" fill="#D9D9E1"/>
    <path d="M353.919 298.657C353.725 298.657 353.539 298.58 353.402 298.443C353.265 298.306 353.188 298.12 353.188 297.926V57.6867C353.188 57.493 353.265 57.3073 353.402 57.1704C353.539 57.0334 353.725 56.9565 353.919 56.9565C354.112 56.9565 354.298 57.0334 354.435 57.1704C354.572 57.3073 354.649 57.493 354.649 57.6867V297.926C354.649 298.12 354.572 298.306 354.435 298.443C354.298 298.58 354.112 298.657 353.919 298.657V298.657Z" fill="#D9D9E1"/>
    <path d="M464.18 298.657C463.987 298.657 463.801 298.58 463.664 298.443C463.527 298.306 463.45 298.12 463.45 297.926V57.6867C463.45 57.493 463.527 57.3073 463.664 57.1704C463.801 57.0334 463.987 56.9565 464.18 56.9565C464.374 56.9565 464.56 57.0334 464.697 57.1704C464.834 57.3073 464.911 57.493 464.911 57.6867V297.926C464.911 298.12 464.834 298.306 464.697 298.443C464.56 298.58 464.374 298.657 464.18 298.657V298.657Z" fill="#D9D9E1"/>
    <path d="M172.764 158.155H146.082C145.211 158.154 144.376 157.807 143.76 157.191C143.144 156.575 142.797 155.74 142.796 154.869V123.382C142.797 122.511 143.144 121.676 143.76 121.06C144.376 120.444 145.211 120.097 146.082 120.096H172.764C173.635 120.097 174.471 120.444 175.087 121.06C175.703 121.676 176.049 122.511 176.05 123.382V154.869C176.049 155.74 175.703 156.575 175.087 157.191C174.471 157.807 173.635 158.154 172.764 158.155V158.155Z" fill="#E0E0FF"/>
    <path d="M210.736 247.971H184.054C183.183 247.97 182.348 247.623 181.732 247.007C181.116 246.391 180.769 245.556 180.768 244.685V213.198C180.769 212.327 181.116 211.492 181.732 210.876C182.348 210.26 183.183 209.913 184.054 209.912H210.736C211.607 209.913 212.442 210.26 213.058 210.876C213.674 211.492 214.021 212.327 214.022 213.198V244.685C214.021 245.556 213.674 246.391 213.058 247.007C212.442 247.623 211.607 247.97 210.736 247.971V247.971Z" fill="#E0E0FF"/>
    <path d="M296.9 177.14H270.219C269.347 177.139 268.512 176.793 267.896 176.177C267.28 175.561 266.934 174.725 266.933 173.854V142.368C266.934 141.497 267.28 140.661 267.896 140.045C268.512 139.429 269.347 139.083 270.219 139.082H296.9C297.772 139.083 298.607 139.429 299.223 140.045C299.839 140.661 300.185 141.497 300.186 142.368V173.854C300.185 174.725 299.839 175.561 299.223 176.177C298.607 176.793 297.772 177.139 296.9 177.14V177.14Z" fill="#E0E0FF"/>
    <path d="M408.623 142.82H381.941C381.07 142.819 380.235 142.473 379.619 141.857C379.003 141.241 378.656 140.405 378.655 139.534V108.048C378.656 107.177 379.003 106.341 379.619 105.725C380.235 105.109 381.07 104.763 381.941 104.762H408.623C409.494 104.763 410.33 105.109 410.946 105.725C411.562 106.341 411.908 107.177 411.909 108.048V139.534C411.908 140.405 411.562 141.241 410.946 141.857C410.33 142.473 409.494 142.819 408.623 142.82V142.82Z" fill="#E0E0FF"/>
    <path d="M511.583 142.82H484.901C484.03 142.819 483.194 142.473 482.578 141.857C481.962 141.241 481.616 140.405 481.615 139.534V108.048C481.616 107.177 481.962 106.341 482.578 105.725C483.194 105.109 484.03 104.763 484.901 104.762H511.583C512.454 104.763 513.289 105.109 513.905 105.725C514.521 106.341 514.868 107.177 514.869 108.048V139.534C514.868 140.405 514.521 141.241 513.905 141.857C513.289 142.473 512.454 142.819 511.583 142.82V142.82Z" fill="#E0E0FF"/>
    <path d="M559.047 151.583H532.365C531.494 151.582 530.659 151.235 530.043 150.619C529.427 150.003 529.08 149.168 529.079 148.297V116.81C529.08 115.939 529.427 115.104 530.043 114.488C530.659 113.872 531.494 113.525 532.365 113.524H559.047C559.918 113.525 560.753 113.872 561.369 114.488C561.985 115.104 562.332 115.939 562.333 116.81V148.297C562.332 149.168 561.985 150.003 561.369 150.619C560.753 151.235 559.918 151.582 559.047 151.583Z" fill="#E6E6E6"/>
    <path d="M537.87 207.809H511.188C510.317 207.808 509.482 207.462 508.866 206.846C508.25 206.23 507.903 205.394 507.902 204.523V173.037C507.903 172.165 508.25 171.33 508.866 170.714C509.482 170.098 510.317 169.752 511.188 169.751H537.87C538.741 169.752 539.577 170.098 540.193 170.714C540.809 171.33 541.155 172.165 541.156 173.037V204.523C541.155 205.394 540.809 206.23 540.193 206.846C539.577 207.462 538.741 207.808 537.87 207.809Z" fill="#E6E6E6"/>
    <path d="M447.324 196.126H420.642C419.771 196.125 418.936 195.778 418.32 195.162C417.704 194.546 417.357 193.711 417.356 192.84V161.353C417.357 160.482 417.704 159.647 418.32 159.031C418.936 158.415 419.771 158.068 420.642 158.067H447.324C448.195 158.068 449.031 158.415 449.647 159.031C450.263 159.647 450.609 160.482 450.61 161.353V192.84C450.609 193.711 450.263 194.546 449.647 195.162C449.031 195.778 448.195 196.125 447.324 196.126Z" fill="#FF6584"/>
    <path d="M395.48 207.809H368.798C367.926 207.808 367.091 207.462 366.475 206.846C365.859 206.23 365.513 205.394 365.512 204.523V173.037C365.513 172.165 365.859 171.33 366.475 170.714C367.091 170.098 367.926 169.752 368.798 169.751H395.48C396.351 169.752 397.186 170.098 397.802 170.714C398.418 171.33 398.765 172.165 398.766 173.037V204.523C398.765 205.394 398.418 206.23 397.802 206.846C397.186 207.462 396.351 207.808 395.48 207.809V207.809Z" fill="#E6E6E6"/>
    <path d="M283.757 257.463H257.075C256.204 257.462 255.369 257.116 254.753 256.5C254.137 255.884 253.79 255.049 253.789 254.177V222.691C253.79 221.82 254.137 220.985 254.753 220.369C255.369 219.753 256.204 219.406 257.075 219.405H283.757C284.628 219.406 285.463 219.753 286.079 220.369C286.695 220.985 287.042 221.82 287.043 222.691V254.177C287.042 255.049 286.695 255.884 286.079 256.5C285.463 257.116 284.628 257.462 283.757 257.463Z" fill="#E6E6E6"/>
    <path d="M148.668 215.841H121.986C121.114 215.84 120.279 215.494 119.663 214.878C119.047 214.262 118.701 213.427 118.7 212.555V181.069C118.701 180.198 119.047 179.363 119.663 178.747C120.279 178.13 121.114 177.784 121.986 177.783H148.668C149.539 177.784 150.374 178.13 150.99 178.747C151.606 179.363 151.953 180.198 151.954 181.069V212.555C151.953 213.427 151.606 214.262 150.99 214.878C150.374 215.494 149.539 215.84 148.668 215.841V215.841Z" fill="#FF6584"/>
    <path d="M223.88 158.155H197.198C196.326 158.154 195.491 157.807 194.875 157.191C194.259 156.575 193.913 155.74 193.912 154.869V123.382C193.913 122.511 194.259 121.676 194.875 121.06C195.491 120.444 196.326 120.097 197.198 120.096H223.88C224.751 120.097 225.586 120.444 226.202 121.06C226.818 121.676 227.164 122.511 227.165 123.382V154.869C227.164 155.74 226.818 156.575 226.202 157.191C225.586 157.807 224.751 158.154 223.88 158.155V158.155Z" fill="#E6E6E6"/>
    <path d="M202.035 70.8305H160.413C159.638 70.8305 158.895 70.5228 158.348 69.975C157.8 69.4273 157.492 68.6843 157.492 67.9097C157.492 67.135 157.8 66.3921 158.348 65.8443C158.895 65.2966 159.638 64.9888 160.413 64.9888H202.035C202.81 64.9888 203.553 65.2966 204.1 65.8443C204.648 66.3921 204.956 67.135 204.956 67.9097C204.956 68.6843 204.648 69.4273 204.1 69.975C203.553 70.5228 202.81 70.8305 202.035 70.8305Z" fill="#CCCCCC"/>
    <path d="M319.599 70.8305H277.977C277.202 70.8305 276.459 70.5228 275.912 69.975C275.364 69.4273 275.056 68.6843 275.056 67.9097C275.056 67.135 275.364 66.3921 275.912 65.8443C276.459 65.2966 277.202 64.9888 277.977 64.9888H319.599C320.374 64.9888 321.117 65.2966 321.664 65.8443C322.212 66.3921 322.52 67.135 322.52 67.9097C322.52 68.6843 322.212 69.4273 321.664 69.975C321.117 70.5228 320.374 70.8305 319.599 70.8305Z" fill="#CCCCCC"/>
    <path d="M429.861 70.8305H388.239C387.464 70.8305 386.721 70.5228 386.173 69.975C385.626 69.4273 385.318 68.6843 385.318 67.9097C385.318 67.135 385.626 66.3921 386.173 65.8443C386.721 65.2966 387.464 64.9888 388.239 64.9888H429.861C430.635 64.9888 431.378 65.2966 431.926 65.8443C432.474 66.3921 432.782 67.135 432.782 67.9097C432.782 68.6843 432.474 69.4273 431.926 69.975C431.378 70.5228 430.635 70.8305 429.861 70.8305Z" fill="#CCCCCC"/>
    <path d="M532.82 70.8305H491.198C490.424 70.8305 489.681 70.5228 489.133 69.975C488.585 69.4273 488.277 68.6843 488.277 67.9097C488.277 67.135 488.585 66.3921 489.133 65.8443C489.681 65.2966 490.424 64.9888 491.198 64.9888H532.82C533.595 64.9888 534.338 65.2966 534.886 65.8443C535.433 66.3921 535.741 67.135 535.741 67.9097C535.741 68.6843 535.433 69.4273 534.886 69.975C534.338 70.5228 533.595 70.8305 532.82 70.8305Z" fill="#CCCCCC"/>
    <path d="M108.811 284.703C107.742 284.599 106.71 284.261 105.786 283.714C104.862 283.167 104.07 282.425 103.464 281.538C102.858 280.652 102.454 279.644 102.28 278.584C102.106 277.525 102.167 276.441 102.458 275.407L83.7402 257.984L93.6366 255.473L112.042 270.401C113.746 271.005 115.169 272.212 116.042 273.794C116.915 275.377 117.177 277.225 116.779 278.988C116.38 280.751 115.349 282.306 113.881 283.359C112.412 284.413 110.608 284.891 108.811 284.703V284.703Z" fill="#FFB8B8"/>
    <path d="M134.656 413.485H143.609L147.867 378.954H134.655L134.656 413.485Z" fill="#FFB8B8"/>
    <path d="M160.874 421.796L132.738 421.797L132.738 410.927L150.003 410.926C152.886 410.926 155.651 412.071 157.69 414.11C159.728 416.148 160.874 418.913 160.874 421.796V421.796L160.874 421.796Z" fill="#2F2E41"/>
    <path d="M73.2759 407.021L81.9274 409.324L94.9259 377.051L82.1582 373.653L73.2759 407.021Z" fill="#FFB8B8"/>
    <path d="M96.4727 421.799L69.2838 414.562L72.08 404.057L88.764 408.498C91.5501 409.24 93.9274 411.058 95.373 413.552C96.8187 416.046 97.2142 419.013 96.4727 421.799V421.799V421.799Z" fill="#2F2E41"/>
    <path d="M146.017 406.947H132.356C131.494 406.95 130.661 406.63 130.022 406.05C129.383 405.469 128.985 404.671 128.905 403.812L120.613 317.697C120.552 317.065 120.274 316.474 119.825 316.025C119.377 315.576 118.786 315.297 118.155 315.235C117.523 315.174 116.89 315.333 116.363 315.687C115.836 316.041 115.449 316.567 115.267 317.175L91.1893 397.644C90.9346 398.499 90.3596 399.223 89.5841 399.665C88.8086 400.106 87.8926 400.231 87.0271 400.014L74.3191 396.836C73.8756 396.726 73.4584 396.528 73.0915 396.255C72.7246 395.983 72.4152 395.64 72.1812 395.247C71.9473 394.855 71.7933 394.419 71.7282 393.967C71.6631 393.514 71.6881 393.053 71.8019 392.611C72.0094 391.8 92.5477 311.537 92.727 310.711C97.3805 276.415 102.948 267.225 105.939 262.288C106.186 261.879 106.414 261.503 106.619 261.148C106.875 260.704 108.453 256.296 109.454 253.434C109.585 252.968 109.81 252.535 110.116 252.161C110.422 251.786 110.802 251.48 111.233 251.26C123.8 244.833 138.504 249.282 142.711 250.798C143.409 251.044 144.008 251.509 144.419 252.124C157.04 271.162 150.846 381.73 149.476 403.702C149.419 404.581 149.03 405.405 148.388 406.008C147.745 406.611 146.897 406.946 146.017 406.947V406.947Z" fill="#2F2E41"/>
    <path d="M110.764 188.822C120.669 188.822 128.699 180.792 128.699 170.887C128.699 160.982 120.669 152.952 110.764 152.952C100.859 152.952 92.8296 160.982 92.8296 170.887C92.8296 180.792 100.859 188.822 110.764 188.822Z" fill="#FFB8B8"/>
    <path d="M108.864 256.916L108.735 256.791C108.493 256.557 84.5972 233.147 87.6897 211.5C89.0124 202.242 96.5036 196.326 109.353 194.391C114.074 193.69 118.889 194.716 122.914 197.281C126.938 199.847 129.902 203.778 131.26 208.353L143.965 251.79L108.864 256.916Z" fill="#CCCCCC"/>
    <path d="M96.6335 273.567L79.6062 256.647C78.4419 255.484 77.5967 254.04 77.1517 252.456C76.7067 250.871 76.6769 249.198 77.0653 247.599L85.3083 214.068C85.5552 213.063 86.0057 212.12 86.6319 211.296C87.2581 210.473 88.0467 209.787 88.9489 209.28C89.8511 208.773 90.8476 208.457 91.8768 208.352C92.906 208.246 93.946 208.352 94.9324 208.664C96.8126 209.27 98.383 210.584 99.311 212.328C100.239 214.072 100.452 216.109 99.9045 218.007L91.2263 247.505L105.26 262.574L96.6335 273.567Z" fill="#CCCCCC"/>
    <path d="M187.962 215.823C187.512 216.798 186.854 217.661 186.033 218.354C185.213 219.047 184.251 219.551 183.215 219.831C182.179 220.112 181.094 220.162 180.036 219.977C178.978 219.793 177.974 219.379 177.094 218.765L154.363 230.546L155.367 220.538L175.519 208.067C176.649 206.657 178.257 205.71 180.039 205.406C181.821 205.102 183.652 205.462 185.186 206.418C186.719 207.374 187.849 208.86 188.361 210.593C188.873 212.326 188.731 214.187 187.962 215.823H187.962Z" fill="#FFB8B8"/>
    <path d="M174.611 223.273L152.452 232.848C150.977 233.481 149.364 233.723 147.769 233.552C146.173 233.381 144.648 232.802 143.341 231.871L115.163 211.681C114.322 211.079 113.614 210.31 113.082 209.423C112.55 208.535 112.206 207.548 112.071 206.522C111.936 205.497 112.012 204.454 112.296 203.459C112.58 202.464 113.066 201.538 113.722 200.739C114.983 199.218 116.787 198.248 118.751 198.034C120.715 197.821 122.685 198.38 124.243 199.594L148.405 218.61L167.61 211.18L174.611 223.273Z" fill="#CCCCCC"/>
    <path d="M113.738 176.634C115.95 173.862 120.084 173.713 123.123 171.884C127.104 169.489 128.75 164.136 127.467 159.671C126.184 155.205 122.401 151.725 118.063 150.061C113.725 148.397 108.899 148.376 104.323 149.181C97.5104 150.378 90.8028 153.558 86.6476 159.089C82.4924 164.619 81.4349 172.719 85.2007 178.521C86.9315 181.188 89.6033 183.39 90.2943 186.493C91.2014 190.568 88.3436 194.497 85.2819 197.334C81.7939 200.566 77.7921 203.273 74.7363 206.917C71.6804 210.56 69.6426 215.538 71.037 220.084C72.2054 223.893 75.6052 226.699 79.3333 228.104C83.0614 229.51 87.1218 229.713 91.1052 229.791C94.9733 229.866 99.0817 229.772 102.34 227.687C105.829 225.454 107.691 221.218 107.829 217.079C107.966 212.94 106.583 208.884 104.729 205.181C103.624 202.973 102.339 200.834 101.605 198.477C100.871 196.12 100.744 193.446 101.92 191.275C103.156 188.993 105.656 187.618 108.202 187.117C108.335 187.091 108.475 187.068 108.621 187.047C109.346 186.953 110.043 186.713 110.673 186.342C111.302 185.971 111.849 185.476 112.281 184.887C112.713 184.298 113.022 183.627 113.188 182.916C113.353 182.204 113.373 181.467 113.246 180.747C112.956 179.13 112.981 177.583 113.738 176.634Z" fill="#2F2E41"/>
    <path d="M352.862 414.249H343.91L339.651 379.719L352.864 379.719L352.862 414.249Z" fill="#A0616A"/>
    <path d="M337.515 411.691H354.78V422.562H326.645C326.645 421.134 326.926 419.72 327.472 418.402C328.018 417.083 328.819 415.884 329.828 414.875C330.838 413.865 332.036 413.065 333.355 412.518C334.674 411.972 336.088 411.691 337.515 411.691Z" fill="#2F2E41"/>
    <path d="M417.818 404.109L409.676 407.828L391.454 378.189L403.473 372.699L417.818 404.109Z" fill="#A0616A"/>
    <path d="M402.796 408.158L418.5 400.985L423.016 410.873L397.424 422.562C396.831 421.264 396.499 419.861 396.448 418.434C396.397 417.008 396.628 415.585 397.127 414.248C397.625 412.91 398.383 411.684 399.355 410.639C400.328 409.594 401.497 408.751 402.796 408.158V408.158Z" fill="#2F2E41"/>
    <path d="M391.748 297.822C392.605 297.176 393.311 296.351 393.815 295.403C394.319 294.455 394.609 293.408 394.665 292.336C394.721 291.264 394.541 290.193 394.138 289.198C393.735 288.203 393.119 287.309 392.333 286.578L402.856 262.7L389.487 264.966L381.543 287.293C380.403 288.695 379.816 290.467 379.895 292.272C379.973 294.078 380.711 295.792 381.969 297.09C383.227 298.388 384.917 299.179 386.719 299.314C388.522 299.449 390.311 298.918 391.748 297.822Z" fill="#A0616A"/>
    <path d="M352.291 405.144H343.739C342.91 405.141 342.112 404.826 341.504 404.261C340.897 403.697 340.525 402.924 340.462 402.097L335.798 277.553C335.763 277.075 335.833 276.596 336.003 276.149C336.172 275.702 336.438 275.297 336.78 274.962C337.123 274.628 337.534 274.373 337.986 274.214C338.437 274.056 338.918 273.998 339.394 274.044L388.855 279.297C389.657 279.375 390.402 279.745 390.948 280.337C391.495 280.928 391.806 281.7 391.821 282.505L392.858 337.443C392.863 337.741 392.921 338.036 393.029 338.314L413.318 390.928C413.474 391.334 413.549 391.768 413.536 392.204C413.524 392.639 413.425 393.068 413.245 393.465C413.066 393.861 412.809 394.219 412.49 394.515C412.171 394.812 411.796 395.043 411.388 395.193L402.721 398.386C401.968 398.663 401.14 398.656 400.393 398.365C399.645 398.074 399.03 397.519 398.663 396.806L373.739 348.343C373.603 348.079 373.504 347.798 373.444 347.508L369.186 326.994C369.063 326.399 368.731 325.868 368.252 325.495C367.772 325.122 367.175 324.933 366.568 324.96C365.961 324.988 365.384 325.23 364.94 325.645C364.496 326.059 364.214 326.618 364.145 327.222L355.556 402.232C355.464 403.034 355.081 403.774 354.479 404.311C353.877 404.848 353.098 405.144 352.291 405.144V405.144Z" fill="#2F2E41"/>
    <path d="M356.55 180.172C366.455 180.172 374.485 172.142 374.485 162.237C374.485 152.332 366.455 144.302 356.55 144.302C346.645 144.302 338.615 152.332 338.615 162.237C338.615 172.142 346.645 180.172 356.55 180.172Z" fill="#A0616A"/>
    <path d="M368.849 288.941C356.687 288.807 344.814 285.21 334.622 278.573L334.447 278.452L334.465 278.241L341.326 198.344C341.562 195.634 342.772 193.1 344.732 191.213C346.691 189.325 349.268 188.211 351.986 188.076C360.877 187.668 372.82 188.183 379.212 192.944C388.874 200.14 393.53 210.976 391.988 222.673C388.79 246.93 392.413 279.651 392.836 283.302L392.867 283.565L392.626 283.675C385.178 287.141 377.063 288.937 368.849 288.941V288.941Z" fill="#E0E0FF"/>
    <path d="M392.754 283.437C392.248 283.436 391.749 283.331 391.286 283.127C390.823 282.923 390.408 282.625 390.066 282.253L386.143 277.973C385.719 277.508 385.422 276.941 385.28 276.328C385.139 275.715 385.157 275.076 385.333 274.471L394.279 244.194L380.668 215.611C380.032 214.273 379.877 212.757 380.227 211.318C380.536 210.054 381.22 208.914 382.19 208.048C383.16 207.182 384.37 206.63 385.66 206.465C386.95 206.3 388.26 206.53 389.417 207.125C390.573 207.72 391.523 208.651 392.139 209.796L410.61 239.765C411.36 240.981 411.8 242.363 411.892 243.788C411.984 245.214 411.724 246.641 411.135 247.942L396.086 281.288C395.838 281.839 395.457 282.32 394.977 282.687C394.496 283.054 393.932 283.296 393.336 283.39C393.143 283.421 392.949 283.437 392.754 283.437V283.437Z" fill="#E0E0FF"/>
    <path d="M266.338 225.601C267.2 226.241 268.191 226.685 269.242 226.901C270.294 227.118 271.38 227.1 272.424 226.851C273.468 226.602 274.445 226.127 275.286 225.46C276.127 224.792 276.811 223.949 277.29 222.988L303.168 226.344L297.221 214.158L273.559 212.84C271.892 212.141 270.027 212.078 268.317 212.663C266.607 213.248 265.171 214.44 264.281 216.013C263.39 217.586 263.108 219.431 263.488 221.198C263.867 222.965 264.881 224.532 266.338 225.601V225.601Z" fill="#A0616A"/>
    <path d="M323.376 232.256C322.925 232.256 322.475 232.225 322.029 232.163L281.319 226.517C280.653 226.425 280.021 226.17 279.479 225.773C278.937 225.377 278.503 224.851 278.215 224.245C278.122 224.049 278.044 223.847 277.983 223.639H277.982C277.825 223.1 277.781 222.534 277.853 221.977C277.925 221.42 278.112 220.884 278.402 220.403L281.771 214.818C282.134 214.221 282.643 213.727 283.251 213.384C283.859 213.04 284.545 212.859 285.244 212.857H285.249L320.735 212.897L347.237 189.153C348.47 188.051 350.045 187.406 351.697 187.328C353.147 187.261 354.584 187.635 355.817 188.4C357.051 189.166 358.023 190.288 358.606 191.618C359.189 192.948 359.355 194.423 359.083 195.849C358.81 197.275 358.112 198.585 357.08 199.607L330.635 229.018C329.72 230.037 328.601 230.852 327.35 231.41C326.099 231.968 324.745 232.256 323.376 232.256V232.256Z" fill="#E0E0FF"/>
    <path d="M358.589 178.192C360.228 174.399 361.614 169.347 358.471 166.666C356.647 165.11 354.021 165.107 351.632 164.913C344.902 164.368 337.973 161.271 334.683 155.374C331.394 149.477 333.231 140.708 339.437 138.048C343.621 136.254 348.417 137.476 352.796 138.718L365.944 142.446C369.851 143.554 373.953 144.776 376.765 147.705C381.251 152.376 380.915 160.273 377.353 165.681C373.79 171.089 368.425 176.73 362.283 178.783L358.589 178.192Z" fill="#2F2E41"/>
    <path d="M539.983 422.799H0.871973C0.757583 422.8 0.644256 422.778 0.538478 422.734C0.4327 422.69 0.33656 422.626 0.255556 422.546C0.174553 422.465 0.110281 422.369 0.0664295 422.263C0.0225775 422.158 0 422.044 0 421.93C0 421.816 0.0225775 421.702 0.0664295 421.597C0.110281 421.491 0.174553 421.395 0.255556 421.314C0.33656 421.234 0.4327 421.17 0.538478 421.126C0.644256 421.082 0.757583 421.06 0.871973 421.061H539.983C540.097 421.06 540.21 421.082 540.316 421.126C540.422 421.17 540.518 421.234 540.599 421.314C540.68 421.395 540.744 421.491 540.788 421.597C540.832 421.702 540.855 421.816 540.855 421.93C540.855 422.044 540.832 422.158 540.788 422.263C540.744 422.369 540.68 422.465 540.599 422.546C540.518 422.626 540.422 422.69 540.316 422.734C540.21 422.778 540.097 422.8 539.983 422.799V422.799Z" fill="#D9D9E1"/>
    </svg>
