<svg width="231" height="215" viewBox="0 0 231 215" fill="none"
    xmlns="http://www.w3.org/2000/svg">
    <path d="M163.066 100.978C187.74 80.8002 203.993 58.0939 211.244 46.5932C211.647 45.934 210.702 45.2355 210.191 45.8652C189.698 70.9916 166.323 89.2315 166.323 89.2315C141.767 109.124 118.49 119.257 118.49 119.257C93.8457 130.305 75.596 132.617 74.9664 132.716H74.9369C55.4574 136.572 47.6362 127.866 47.6362 127.866C41.143 122.012 43.3566 108.927 45.0389 102.277C45.1963 101.539 44.2519 101.136 43.8682 101.765C39.8739 108.199 32.3379 122.169 33.5087 134.172C34.9057 148.299 51.0303 149.726 55.0836 149.854C55.5263 149.854 55.8411 150.326 55.6542 150.739C51.1877 161.03 41.9104 161.256 41.9104 161.256H33.2922C32.9479 161.256 32.6626 161.541 32.6626 161.886V164.739C32.6626 165.083 32.9479 165.368 33.2922 165.368H87.5395C87.8838 165.368 88.1691 165.083 88.1691 164.739V161.669C88.1691 161.325 87.8838 161.04 87.5395 161.04H77.0521C70.8737 160.125 73.471 150.208 74.0711 148.181C74.1301 147.965 74.3171 147.798 74.5433 147.739C102.316 141.816 133.867 122.179 140.518 117.841C141.246 117.398 142.2 117.683 142.515 118.47C145.397 125.475 155.245 154.674 156.386 157.242C157.498 159.712 155.53 160.981 154.96 161.295C154.901 161.325 154.773 161.354 154.675 161.354H151.762C151.418 161.354 151.133 161.64 151.133 161.984V164.768C151.133 165.113 151.418 165.398 151.762 165.398H207.79C208.135 165.398 208.42 165.113 208.42 164.768V161.915C208.42 161.541 208.076 161.256 207.692 161.286C188.754 163.312 185.487 152.608 183.146 149.47C180.775 146.302 175.325 132.686 175.325 132.686L162.88 101.706C162.781 101.45 162.84 101.165 163.066 100.978ZM41.3004 133.385L39.9034 131.23L37.8768 132.814L38.4179 130.315L35.8501 130L38.0342 128.643L36.4207 126.646L38.959 127.187L39.2738 124.649L40.6708 126.833L42.6974 125.249L42.1268 127.718L44.6946 128.033L42.5105 129.391L44.124 131.417L41.5857 130.847L41.3004 133.385ZM52.506 140.262L54.818 143.174L51.1779 142.347L50.7352 146.056L48.738 142.918L45.7964 145.2L46.6228 141.59L42.8844 141.147L46.0522 139.15L43.7108 136.238L47.3804 137.064L47.8231 133.395L49.8202 136.523L52.7618 134.241L51.9354 137.851L55.6739 138.294L52.506 140.262ZM69.949 142.357L72.4183 145.495L68.5224 144.61L68.0502 148.565L65.8957 145.21L62.7573 147.65L63.6132 143.784L59.619 143.311L63.0033 141.186L60.5044 138.078L64.4298 138.933L64.902 135.008L67.0566 138.363L70.1949 135.894L69.339 139.789L73.3333 140.232L69.949 142.357ZM87.6182 141.649L84.5487 140.95L84.165 144.059L82.4827 141.432L79.9838 143.361L80.6823 140.291L77.544 139.947L80.2002 138.264L78.2326 135.795L81.3021 136.494L81.6858 133.385L83.3976 136.012L85.867 134.083L85.1685 137.153L88.3068 137.497L85.6505 139.179L87.6182 141.649ZM102.533 136.808L99.7485 136.179L99.4337 139.002L97.8793 136.631L95.6264 138.373L96.2265 135.618L93.403 135.274L95.8133 133.749L94.0424 131.535L96.8266 132.135L97.1709 129.312L98.6958 131.712L100.949 129.971L100.349 132.726L103.202 133.07L100.762 134.595L102.533 136.808ZM115.312 130.817L112.715 130.246L112.4 132.903L110.974 130.62L108.888 132.303L109.459 129.676L106.832 129.361L109.085 127.934L107.442 125.849L110.039 126.419L110.354 123.793L111.78 126.036L113.866 124.393L113.296 126.99L115.922 127.305L113.669 128.731L115.312 130.817ZM126.252 124.924L124.068 124.412L123.812 126.665L122.612 124.767L120.841 126.164L121.353 123.98L119.1 123.694L120.999 122.494L119.602 120.753L121.815 121.225L122.071 119.011L123.281 120.91L125.023 119.513L124.55 121.697L126.764 121.953L124.895 123.153L126.252 124.924ZM137.025 118.126L135.185 117.713L134.959 119.582L133.946 117.998L132.49 119.169L132.903 117.329L131.034 117.103L132.618 116.089L131.447 114.604L133.287 115.017L133.513 113.148L134.526 114.732L135.982 113.561L135.599 115.401L137.438 115.627L135.854 116.64L137.025 118.126ZM148.427 111.17L146.716 110.787L146.489 112.558L145.535 111.033L144.138 112.144L144.522 110.403L142.751 110.216L144.276 109.262L143.164 107.835L144.905 108.248L145.092 106.478L146.056 107.953L147.453 106.881L147.07 108.593L148.841 108.819L147.355 109.773L148.427 111.17ZM159.121 103.133L157.439 102.749L157.213 104.461L156.298 103.005L154.95 104.087L155.334 102.405L153.622 102.178L155.078 101.263L154.006 99.9058L155.717 100.289L155.904 98.5776L156.819 100.034L158.177 98.9908L157.793 100.673L159.505 100.86L158.049 101.775L159.121 103.133Z" fill="white"/>
    <path d="M208.744 15.8885C201.592 -7.14245 142.77 19.8434 142.77 19.8434C197.244 6.06026 195.188 22.4702 195.188 22.4702C202.153 46.7014 151.408 73.4315 151.408 73.4315L123.468 4.40746C118.933 -5.50933 115.135 4.40746 115.135 4.40746L67.6958 122.838C78.016 121.313 84.4796 119.257 84.4796 119.257C84.4796 119.257 111.21 47.5475 112.548 44.5567C113.886 41.5462 114.958 44.5567 114.958 44.5567L134.624 97.5151C219.104 47.3409 208.744 15.8885 208.744 15.8885ZM166.49 14.2947L165.575 14.0685L165.477 15.0228L164.965 14.2357L164.207 14.8063L164.434 13.8914L163.479 13.793L164.266 13.2814L163.696 12.5239L164.611 12.7502L164.709 11.7959L165.221 12.5829L165.978 12.0123L165.752 12.9272L166.706 13.0256L165.919 13.5372L166.49 14.2947ZM178.542 12.6715L177.184 12.3566L177.026 13.7536L176.298 12.5829L175.226 13.4388L175.511 12.0812L174.154 11.9238L175.324 11.1662L174.469 10.0939L175.797 10.4087L175.954 9.01169L176.712 10.1726L177.784 9.31667L177.499 10.6743L178.856 10.8317L177.686 11.5598L178.542 12.6715ZM191.882 13.2814L189.757 12.8092L189.501 14.9637L188.36 13.124L186.648 14.4817L187.12 12.3566L184.966 12.1008L186.806 10.9301L185.477 9.21829L187.563 9.69052L187.819 7.53598L188.999 9.3757L190.711 8.04756L190.239 10.1726L192.394 10.4284L190.554 11.5696L191.882 13.2814ZM165.496 73.2446L163.814 72.8609L163.627 74.5727L162.712 73.1167L161.354 74.189L161.738 72.4772L160.026 72.2903L161.482 71.3753L160.41 70.0177L162.092 70.4014L162.319 68.6895L163.224 70.1357L164.552 69.0634L164.168 70.7457L165.88 70.972L164.453 71.8869L165.496 73.2446ZM178.266 64.2427L176.584 63.859L176.357 65.5709L175.443 64.1148L174.085 65.1872L174.469 63.5049L172.757 63.2786L174.213 62.3636L173.17 61.006L174.852 61.3897L175.039 59.6778L175.954 61.1339L177.312 60.0615L176.928 61.7438L178.64 61.9701L177.184 62.8851L178.266 64.2427ZM188.665 54.0111L187.179 53.6963L186.992 55.2212L186.205 53.9226L185.005 54.8769L185.32 53.3913L183.795 53.2044L185.094 52.378L184.139 51.1777L185.625 51.5221L185.812 49.9972L186.628 51.2564L187.829 50.3415L187.484 51.827L189.009 51.9845L187.711 52.8109L188.665 54.0111ZM198.877 43.2089L196.821 42.7367L196.565 44.8617L195.424 43.0515L193.741 44.3796L194.214 42.2939L192.089 42.0677L193.909 40.9264L192.58 39.2441L194.666 39.6868L194.922 37.6012L196.063 39.372L197.706 38.0734L197.263 40.1296L199.349 40.3854L197.578 41.5266L198.877 43.2089ZM204.681 31.5212L202.556 31.049L202.301 33.2331L201.13 31.3638L199.388 32.7215L199.861 30.5965L197.706 30.3111L199.546 29.1404L198.188 27.4286L200.343 27.9008L200.599 25.7168L201.769 27.5958L203.481 26.2382L203.009 28.3632L205.193 28.619L203.353 29.8094L204.681 31.5212ZM202.842 17.2068L204.74 19.6171L201.759 18.9482L201.415 21.9881L199.772 19.3909L197.362 21.2896L198.031 18.3087L195.02 17.9643L197.588 16.3214L195.689 13.9111L198.67 14.58L199.054 11.5401L200.658 14.1275L203.068 12.2287L202.399 15.2097L205.439 15.5934L202.842 17.2068Z" fill="white"/>
    <path d="M113.108 198.926C112.351 198.926 109.754 198.867 109.754 197.972V186.314C109.754 184.789 113.423 185.93 113.905 186.087C115.932 186.845 117.418 189.6 117.418 191.794C117.418 194.165 117.191 197.145 115.047 198.444C114.692 198.641 113.591 198.926 113.108 198.926ZM99.6795 184.444C101.391 184.444 103.802 184.031 103.802 185.399V210.988C103.802 213.142 103.418 213.172 100.25 213.241V214.765H114.633C114.791 214.136 115.145 213.654 114.289 213.241C111.918 212.198 109.596 215.68 109.596 208.745V201.966H113.718C113.876 202.635 113.876 202.379 114.289 202.881L116.129 205.537L116.227 205.636L116.326 205.734L118.293 208.459C119.336 210.043 120.635 211.568 122.002 212.827C124.826 215.454 128.751 214.756 133.345 214.756V213.044H130.561C129.607 213.044 127.62 211.332 126.665 210.388L126.567 210.289L126.469 210.191L121.245 204.111C121.215 204.081 121.186 204.052 121.146 203.983L119.179 201.445C117.437 199.231 117.978 199.989 119.808 198.09C122.75 195.05 124.501 190.426 122.061 186.53C120.536 184.159 117.339 182.693 114.84 182.693H99.7287V184.435L99.6795 184.444ZM199.329 213.044C198.257 213.585 197.401 213.427 195.975 213.427V214.539H207.534V213.427C203.383 213.427 203.511 213.841 203.196 207.662L202.881 191.951C203.924 191.98 203.353 191.823 203.835 192.295C203.835 192.295 204.121 192.64 204.15 192.708L212.198 201.356L212.296 201.455L212.394 201.553C212.552 201.74 212.621 201.779 212.778 201.937L213.506 202.694L213.605 202.793L220.609 209.856L220.708 209.955L221.278 210.525C222.006 211.283 225.4 214.736 225.873 214.736C227.142 214.736 226.788 212.808 226.788 211.155C226.788 209.699 226.945 208.272 226.886 207.131L226.984 200.795C226.984 199.782 227.142 199.684 227.171 198.739C227.23 196.654 226.788 186.422 227.486 184.927C227.516 184.897 227.545 184.828 227.545 184.799C227.575 184.769 227.604 184.7 227.604 184.671C227.604 184.641 227.634 184.572 227.663 184.543C227.85 184.228 227.663 184.415 227.919 184.228C228.46 183.785 229.887 183.815 230.674 183.815V182.674H219.842C219.173 182.674 219.271 183.057 219.271 183.815C221.111 183.815 223.423 183.589 223.58 185.684C223.639 186.442 223.679 186.668 223.738 187.238C223.964 189.167 223.58 191.646 223.797 193.574L224.141 202.438V205.823C223.187 205.764 221.603 203.953 220.944 203.196L216.704 198.601C216.192 198.031 215.749 197.647 215.218 197.077L202.93 184.248C202.615 183.933 202.517 183.864 202.173 183.49C201.632 182.89 201.386 182.319 200.431 182.251C199.89 184.592 200.048 190.711 200.048 193.751C200.048 194.706 199.89 194.952 199.861 195.65C199.802 196.663 200.018 196.408 199.92 197.362C199.457 202.251 200.313 208.872 199.329 213.044ZM160.341 183.874C165.378 183.874 164.463 184.631 164.463 191.98C164.463 195.778 164.178 200.185 164.621 203.668C164.749 204.78 164.906 205.154 165.004 206.078C165.575 210.447 169.786 214.47 174.154 214.726C177.538 214.913 176.495 215.011 179.948 214.726L183.116 213.772C184.887 212.945 185.969 211.962 187.17 210.506C190.721 206.226 189.865 197.549 189.865 192.708C189.865 190.898 189.521 185.458 190.337 184.533C190.967 183.835 192.463 183.864 193.407 183.864V182.723H182.034V183.864C184.504 183.864 184.572 184.208 185.586 184.248C185.684 185.261 186.156 185.005 186.156 186.688V203.255C186.156 210.22 182.772 213.231 175.925 212.473C175.58 212.444 175.384 212.375 175.069 212.217L173.042 211.047L172.944 210.948L172.275 210.319C170.661 208.676 170.12 205.852 170.12 203.442L169.933 198.562C169.933 196.791 169.835 189.885 170.061 188.517C170.287 187.061 170.032 185.792 170.346 184.464C171.458 183.923 172.275 183.894 173.514 183.894V182.752H160.469V183.864L160.341 183.874ZM15.8688 191.38C16.2132 192.866 16.9805 194.42 17.3937 195.621C17.9939 197.391 19.4794 201.071 19.8041 202.497L14.4522 204.367L10.6546 204.937L14.1078 195.66C14.2062 195.345 14.2357 195.276 14.4226 194.833C14.7375 194.165 14.8654 193.663 15.0916 193.023L15.7901 191.469C15.8098 191.479 15.8393 191.449 15.8688 191.38ZM0 213.427V214.539H10.8317V213.427C9.53311 213.113 9.59214 213.241 8.04756 213.241C8.04756 209.6 9.03136 209.374 9.53311 207.22C10.4874 207.22 11.6188 207.092 12.6715 206.993C13.7143 206.895 14.6391 206.649 15.6524 206.423C16.6657 206.196 18.7907 205.665 19.6762 205.223C20.3058 204.908 20.2763 204.809 21.1027 204.78C21.1322 205.252 21.1617 205.065 21.2306 205.223C21.2306 205.282 21.2896 205.449 21.329 205.508L21.4274 205.793C21.6143 206.462 21.5257 206.334 21.811 206.934C22.2242 207.918 23.8967 212.385 23.9361 213.27C22.9523 213.27 22.8244 213.211 22.8244 214.028C22.8244 214.47 22.9523 214.598 23.395 214.598H34.2267C34.2267 211.43 32.0427 214.982 29.8586 212.257C29.4454 211.716 29.0322 211.017 28.7174 210.388C28.5305 209.974 28.4616 209.689 28.2747 209.345C27.9894 208.774 28.0484 209 27.8319 208.302L20.8272 190.879C20.5124 190.023 20.3157 189.521 20.0008 188.695L18.2595 184.415C18.0332 183.972 18.2005 184.317 18.0332 183.903C17.4626 182.447 17.4331 183.047 17.2462 182.26C16.4591 182.29 16.6165 182.162 16.2328 182.733C15.9475 183.146 15.9475 183.362 15.7606 183.775L9.29699 200.028C9.07072 200.569 9.0412 200.54 8.85428 201.1L3.88604 212.631C3.60074 212.975 3.41382 213.201 3.03013 213.3C2.91207 213.172 0.0295143 213.427 0 213.427ZM39.9426 190.278L41.0543 190.505C41.2806 188.065 41.5954 186.894 43.6221 186.097C44.2222 185.871 44.8223 185.586 45.5503 185.586H56.569C56.5395 186.697 54.7982 189.068 54.0996 190.082L39.0179 213.998C40.5428 214.726 48.6493 214.382 51.3351 214.382C52.86 214.382 53.8045 214.569 55.4573 214.569H59.5795C63.8197 214.569 62.0783 214.795 63.377 209.758C63.5639 209.03 63.6032 208.804 63.7213 208.017C63.8492 207.161 64.105 206.905 62.9342 206.875C62.9047 208.174 62.521 210.102 61.4093 210.801C60.4551 211.401 58.6547 211.971 57.1298 211.971H46.1111C46.1111 211.086 49.5938 206.108 50.3513 204.967L52.8207 201.228C52.8502 201.199 52.8797 201.169 52.8797 201.1L52.9781 201.002L54.2767 198.946C54.4637 198.661 54.7194 198.277 54.8473 198.031L57.0314 194.607C57.2872 194.263 57.3167 194.164 57.543 193.781L60.4255 189.186L60.5239 189.088C60.5534 189.059 60.5829 189.029 60.5829 188.96C60.7699 188.675 60.6813 188.803 60.8683 188.488C61.1536 188.016 61.1831 188.016 61.4389 187.573L62.4817 185.832C62.5112 185.802 62.5407 185.773 62.5407 185.704C62.5702 185.674 62.5998 185.645 62.6391 185.576C64.7248 182.349 64.0656 183.136 52.5649 183.136L44.0156 183.106C43.3171 183.047 42.0873 182.821 41.3593 182.762L39.9426 190.278ZM89.2315 182.929H70.9228C70.9228 184.671 70.7359 184.258 75.0449 184.258C75.2319 185.015 75.6155 185.015 75.6155 186.127V210.043C75.6155 211.371 75.3302 212.385 74.8875 213.241C73.3036 213.241 72.3886 213.427 70.9621 213.427V214.539H90.5694C90.9138 214.539 91.6123 213.969 91.8681 213.782C91.8681 211.912 92.4387 210.614 92.4387 208.686C92.4387 207.987 92.4977 208.626 92.2518 208.115C90.1661 208.302 93.0093 212.07 87.2146 212.07C84.1452 212.07 81.0658 212.611 81.0658 209.63V198.729C82.5219 198.729 87.2737 198.631 88.3165 199.113C89.2708 199.526 89.4577 201.11 89.4577 202.497C91.1007 202.497 90.5694 202.783 90.5694 195.335H89.4577V196.29C88.1591 196.29 87.6475 196.476 86.2899 196.476H81.0658V185.359L88.7002 185.743C90.2251 186.442 89.8414 187.425 89.8414 189.098H90.9826C90.9826 186.786 91.3663 185.015 91.3663 182.703C90.3333 182.733 90.2743 182.929 89.2315 182.929ZM150.611 207.22C150.611 209.118 150.769 210.417 148.968 211.745C147.07 213.201 143.715 213.172 141.747 212.03L140.832 211.273C140.547 210.988 140.675 211.145 140.36 210.801C138.107 207.977 140.517 205.892 138.146 205.892C138.146 207.918 137.92 212.07 138.333 213.811L140.99 214.697C143.4 215.169 146.755 215.139 149.037 214.254C149.45 214.096 149.795 214.028 150.178 213.91C150.464 213.782 150.847 213.496 151.093 213.339L151.762 212.896C151.792 212.867 151.821 212.837 151.89 212.798L151.989 212.699L154.556 209.276C154.615 209.05 154.655 208.931 154.714 208.676C155.54 205.98 155.412 205.852 154.684 203.137C153.671 199.369 149.903 196.585 146.922 194.43C146.538 194.145 146.479 194.046 146.135 193.732C145.791 193.446 145.623 193.387 145.279 193.063L144.522 192.335C143.164 190.81 142.997 190.21 142.997 188.212C142.997 187.514 143.223 186.815 143.567 186.343L144.394 185.458C146.135 184.13 149.687 184.031 151.428 185.586C153.199 187.14 153.11 187.868 153.11 189.924H154.222C154.222 183.274 154.95 183.018 151.812 182.762C148.703 182.506 147.188 181.936 143.675 183.392C140.95 184.533 138.953 187.032 138.766 190.111C138.609 192.61 140.094 195.365 141.747 197.204L143.961 199.329C145.033 200.343 146.017 200.786 146.902 201.641L147.375 202.084C148.575 203.157 148.23 202.714 149.372 204.012L149.687 204.426C150.11 205.134 150.611 206.275 150.611 207.22Z" fill="white"/>
</svg>
