<svg width="54" height="50" viewBox="0 0 54 50" fill="none" xmlns="http://www.w3.org/2000/svg">
    <path d="M37.9227 23.4833C43.6608 18.7908 47.4404 13.5102 49.1266 10.8356C49.2205 10.6823 49.0008 10.5199 48.8818 10.6663C44.1161 16.5097 38.68 20.7515 38.68 20.7515C32.9693 25.3777 27.5561 27.7343 27.5561 27.7343C21.8248 30.3036 17.5807 30.8413 17.4343 30.8641H17.4274C12.8973 31.761 11.0784 29.7362 11.0784 29.7362C9.56839 28.3749 10.0832 25.3319 10.4744 23.7853C10.511 23.6137 10.2914 23.5199 10.2021 23.6663C9.27324 25.1626 7.52069 28.4115 7.79295 31.2028C8.11784 34.4882 11.8678 34.82 12.8104 34.8497C12.9133 34.8497 12.9865 34.9595 12.9431 35.0556C11.9044 37.4488 9.74684 37.5014 9.74684 37.5014H7.74262C7.66254 37.5014 7.59619 37.5678 7.59619 37.6478V38.3113C7.59619 38.3914 7.66254 38.4578 7.74262 38.4578H20.3583C20.4383 38.4578 20.5047 38.3914 20.5047 38.3113V37.5975C20.5047 37.5174 20.4383 37.4511 20.3583 37.4511H17.9193C16.4825 37.2383 17.0865 34.9321 17.2261 34.4608C17.2398 34.4104 17.2833 34.3715 17.3359 34.3578C23.7947 32.9805 31.1321 28.4138 32.6787 27.4048C32.848 27.3018 33.07 27.3682 33.1432 27.5512C33.8136 29.1802 36.1038 35.9708 36.3692 36.5679C36.6277 37.1422 36.1701 37.4374 36.0374 37.5106C36.0237 37.5174 35.9939 37.5243 35.9711 37.5243H35.2938C35.2138 37.5243 35.1474 37.5907 35.1474 37.6707V38.3182C35.1474 38.3983 35.2138 38.4646 35.2938 38.4646H48.3236C48.4037 38.4646 48.47 38.3983 48.47 38.3182V37.6547C48.47 37.5678 48.3899 37.5014 48.3007 37.5083C43.8965 37.9796 43.1369 35.4903 42.5923 34.7605C42.0409 34.0238 40.7734 30.8573 40.7734 30.8573L37.8792 23.6526C37.8563 23.5931 37.87 23.5268 37.9227 23.4833ZM9.60499 31.0197L9.28011 30.5187L8.80879 30.887L8.93463 30.3059L8.33748 30.2327L8.8454 29.9169L8.47018 29.4525L9.06046 29.5783L9.13368 28.988L9.45856 29.496L9.92988 29.1276L9.79718 29.7019L10.3943 29.7751L9.88641 30.0908L10.2616 30.5621L9.67134 30.4294L9.60499 31.0197ZM12.2109 32.619L12.7486 33.2962L11.9021 33.104L11.7991 33.9666L11.3347 33.2367L10.6506 33.7675L10.8428 32.9279L9.97335 32.8249L10.7101 32.3605L10.1655 31.6832L11.0189 31.8754L11.1219 31.022L11.5863 31.7496L12.2704 31.2188L12.0782 32.0584L12.9477 32.1614L12.2109 32.619ZM16.2674 33.1063L16.8417 33.8362L15.9357 33.6302L15.8259 34.55L15.3248 33.7698L14.595 34.3372L14.794 33.4381L13.8651 33.3282L14.6522 32.834L14.071 32.1111L14.9839 32.3101L15.0937 31.3972L15.5948 32.1774L16.3246 31.6031L16.1256 32.5092L17.0545 32.6121L16.2674 33.1063ZM20.3766 32.9416L19.6627 32.7791L19.5735 33.5021L19.1823 32.8912L18.6011 33.3397L18.7636 32.6258L18.0337 32.5458L18.6515 32.1545L18.1939 31.5803L18.9077 31.7427L18.9969 31.0197L19.395 31.6306L19.9693 31.1822L19.8069 31.896L20.5367 31.9761L19.919 32.3673L20.3766 32.9416ZM23.8451 31.8159L23.1976 31.6695L23.1244 32.3261L22.7629 31.7747L22.2389 32.1797L22.3785 31.5391L21.7219 31.459L22.2824 31.1044L21.8706 30.5896L22.5181 30.7292L22.5981 30.0725L22.9528 30.6308L23.4767 30.2258L23.3371 30.8664L24.0006 30.9465L23.4332 31.3011L23.8451 31.8159ZM26.8171 30.4226L26.2131 30.2899L26.1398 30.9076L25.8081 30.3768L25.3231 30.7681L25.4558 30.1572L24.8449 30.084L25.3688 29.7522L24.9867 29.2672L25.5907 29.3999L25.664 28.789L25.9957 29.3106L26.4807 28.9286L26.348 29.5326L26.9589 29.6058L26.435 29.9375L26.8171 30.4226ZM29.3612 29.0521L28.8533 28.9331L28.7938 29.4571L28.5147 29.0155L28.1029 29.3404L28.2219 28.8325L27.6979 28.7661L28.1395 28.487L27.8146 28.082L28.3294 28.1918L28.3889 27.6771L28.6703 28.1186L29.0753 27.7937L28.9654 28.3017L29.4802 28.3612L29.0455 28.6403L29.3612 29.0521ZM31.8665 27.4711L31.4387 27.3751L31.3861 27.8098L31.1504 27.4414L30.8118 27.7137L30.9079 27.2858L30.4732 27.2332L30.8415 26.9975L30.5693 26.6521L30.9971 26.7482L31.0497 26.3135L31.2854 26.6818L31.624 26.4096L31.5348 26.8374L31.9626 26.89L31.5943 27.1257L31.8665 27.4711ZM34.5182 25.8536L34.1201 25.7644L34.0675 26.1762L33.8456 25.8216L33.5207 26.0801L33.6099 25.6751L33.1981 25.6317L33.5527 25.4097L33.2942 25.078L33.6992 25.1741L33.7426 24.7622L33.9668 25.1054L34.2917 24.856L34.2025 25.2541L34.6143 25.3068L34.2689 25.5287L34.5182 25.8536ZM37.0052 23.9843L36.614 23.8951L36.5614 24.2932L36.3486 23.9546L36.0351 24.2063L36.1244 23.815L35.7263 23.7624L36.0649 23.5496L35.8155 23.2339L36.2136 23.3231L36.2571 22.925L36.4698 23.2636L36.7856 23.0211L36.6963 23.4124L37.0944 23.4558L36.7558 23.6686L37.0052 23.9843Z" fill="white"/>
    <path d="M48.5452 3.695C46.8819 -1.66104 33.2023 4.61475 33.2023 4.61475C45.8706 1.40936 45.3924 5.22563 45.3924 5.22563C47.0123 10.8608 35.2111 17.0771 35.2111 17.0771L28.7134 1.02499C27.6587 -1.28124 26.7756 1.02499 26.7756 1.02499L15.7432 28.5671C18.1432 28.2124 19.6464 27.7343 19.6464 27.7343C19.6464 27.7343 25.8627 11.0576 26.1738 10.362C26.485 9.66192 26.7344 10.362 26.7344 10.362L31.3079 22.6779C50.9544 11.0095 48.5452 3.695 48.5452 3.695ZM38.7185 3.32436L38.5058 3.27174L38.4829 3.49366L38.3639 3.31063L38.1877 3.44333L38.2404 3.23055L38.0184 3.20767L38.2015 3.0887L38.0688 2.91253L38.2815 2.96515L38.3044 2.74322L38.4234 2.92626L38.5996 2.79356L38.5469 3.00634L38.7689 3.02922L38.5858 3.14819L38.7185 3.32436ZM41.5212 2.94685L41.2055 2.87364L41.1689 3.19852L40.9996 2.92626L40.7502 3.12531L40.8166 2.80957L40.5008 2.77297L40.7731 2.5968L40.574 2.34741L40.8829 2.42063L40.9195 2.09574L41.0957 2.36572L41.3451 2.16667L41.2787 2.4824L41.5945 2.51901L41.3222 2.68831L41.5212 2.94685ZM44.6237 3.0887L44.1295 2.97888L44.07 3.47994L43.8046 3.05209L43.4065 3.36783L43.5163 2.87364L43.0153 2.81415L43.4431 2.54189L43.1342 2.14379L43.6193 2.25361L43.6788 1.75255L43.9533 2.18039L44.3514 1.87152L44.2416 2.36572L44.7426 2.4252L44.3148 2.6906L44.6237 3.0887ZM38.4875 17.0336L38.0962 16.9444L38.0527 17.3425L37.84 17.0039L37.5242 17.2533L37.6135 16.8552L37.2154 16.8117L37.554 16.5989L37.3046 16.2832L37.6958 16.3724L37.7485 15.9743L37.9589 16.3106L38.2678 16.0612L38.1786 16.4525L38.5767 16.5051L38.2449 16.7179L38.4875 17.0336ZM41.4572 14.9402L41.0659 14.8509L41.0133 15.249L40.8005 14.9104L40.4848 15.1598L40.574 14.7686L40.1759 14.7159L40.5146 14.5032L40.272 14.1874L40.6633 14.2767L40.7067 13.8786L40.9195 14.2172L41.2353 13.9678L41.146 14.359L41.5441 14.4117L41.2055 14.6244L41.4572 14.9402ZM43.8755 12.5607L43.53 12.4875L43.4866 12.8421L43.3035 12.5401L43.0244 12.7621L43.0976 12.4166L42.743 12.3731L43.045 12.1809L42.8231 11.9018L43.1686 11.9819L43.212 11.6272L43.4019 11.9201L43.681 11.7073L43.601 12.0528L43.9556 12.0894L43.6536 12.2816L43.8755 12.5607ZM46.2504 10.0486L45.7722 9.93876L45.7127 10.4329L45.4473 10.012L45.0561 10.3208L45.1659 9.8358L44.6717 9.78318L45.095 9.51778L44.7861 9.12654L45.2712 9.2295L45.3306 8.74446L45.596 9.15629L45.9781 8.85428L45.8752 9.33246L46.3602 9.39194L45.9484 9.65734L46.2504 10.0486ZM47.6003 7.33052L47.1061 7.2207L47.0466 7.72862L46.7743 7.29391L46.3694 7.60965L46.4792 7.11545L45.9781 7.0491L46.406 6.77684L46.0902 6.37874L46.5913 6.48856L46.6508 5.98064L46.923 6.41764L47.3211 6.1019L47.2113 6.59609L47.7192 6.65558L47.2914 6.93242L47.6003 7.33052ZM47.1724 4.00158L47.614 4.56213L46.9208 4.40655L46.8407 5.11352L46.4586 4.5095L45.898 4.95107L46.0536 4.25783L45.3535 4.17776L45.9507 3.79567L45.5091 3.23513L46.2023 3.39071L46.2916 2.68374L46.6645 3.28546L47.225 2.84389L47.0695 3.53714L47.7764 3.62636L47.1724 4.00158Z" fill="white"/>
    <path d="M26.3043 46.2619C26.1281 46.2619 25.5241 46.2482 25.5241 46.04V43.3288C25.5241 42.9741 26.3775 43.2395 26.4896 43.2761C26.9609 43.4523 27.3064 44.0929 27.3064 44.6031C27.3064 45.1545 27.2538 45.8478 26.755 46.1498C26.6727 46.1955 26.4164 46.2619 26.3043 46.2619ZM23.1813 42.8941C23.5794 42.8941 24.1399 42.798 24.1399 43.116V49.0669C24.1399 49.5679 24.0507 49.5748 23.314 49.5908V49.9455H26.6589C26.6955 49.799 26.7779 49.6869 26.5789 49.5908C26.0275 49.3483 25.4875 50.1582 25.4875 48.5452V46.9689H26.4462C26.4828 47.1244 26.4828 47.0649 26.5789 47.1816L27.0067 47.7994L27.0296 47.8223L27.0525 47.8451L27.51 48.4789C27.7526 48.8472 28.0546 49.2019 28.3726 49.4947C29.0292 50.1056 29.9421 49.9432 31.0106 49.9432V49.5451H30.3631C30.1412 49.5451 29.679 49.147 29.4571 48.9273L29.4342 48.9044L29.4113 48.8816L28.1964 47.4676C28.1896 47.4608 28.1827 47.4539 28.1735 47.4379L27.716 46.8476C27.311 46.3328 27.4368 46.509 27.8624 46.0674C28.5465 45.3604 28.9537 44.2851 28.3863 43.3791C28.0317 42.8277 27.2881 42.4868 26.707 42.4868H23.1927V42.8918L23.1813 42.8941ZM46.3557 49.5451C46.1063 49.6709 45.9073 49.6343 45.5755 49.6343V49.8928H48.2638V49.6343C47.2983 49.6343 47.3281 49.7304 47.2549 48.2936L47.1816 44.6397C47.4242 44.6466 47.2915 44.61 47.4036 44.7198C47.4036 44.7198 47.4699 44.7999 47.4768 44.8159L49.3483 46.827L49.3712 46.8499L49.3941 46.8728C49.4307 46.9162 49.4467 46.9254 49.4833 46.962L49.6526 47.1382L49.6755 47.161L51.3045 48.8038L51.3274 48.8267L51.4601 48.9594C51.6294 49.1355 52.4187 49.9386 52.5285 49.9386C52.8237 49.9386 52.7413 49.4902 52.7413 49.1058C52.7413 48.7672 52.7779 48.4354 52.7642 48.17L52.7871 46.6966C52.7871 46.4609 52.8237 46.4381 52.8305 46.2184C52.8443 45.7334 52.7413 43.3539 52.9037 43.0062C52.9106 42.9993 52.9175 42.9833 52.9175 42.9764C52.9243 42.9696 52.9312 42.9535 52.9312 42.9467C52.9312 42.9398 52.9381 42.9238 52.9449 42.9169C52.9884 42.8437 52.9449 42.8872 53.0044 42.8437C53.1303 42.7408 53.462 42.7476 53.645 42.7476V42.4822H51.126C50.9705 42.4822 50.9933 42.5715 50.9933 42.7476C51.4212 42.7476 51.9588 42.695 51.9954 43.1823C52.0092 43.3585 52.0183 43.4111 52.032 43.5438C52.0847 43.9923 51.9954 44.5688 52.0458 45.0173L52.1259 47.0787V47.8657C51.9039 47.852 51.5356 47.431 51.3823 47.2548L50.3962 46.1864C50.2772 46.0537 50.1743 45.9645 50.0507 45.8318L47.1931 42.8483C47.1199 42.7751 47.097 42.7591 47.0169 42.6721C46.8911 42.5326 46.8339 42.3999 46.6119 42.3839C46.4861 42.9284 46.5227 44.3515 46.5227 45.0584C46.5227 45.2804 46.4861 45.3376 46.4792 45.5C46.4655 45.7357 46.5159 45.6762 46.493 45.8981C46.3854 47.0352 46.5845 48.575 46.3557 49.5451ZM37.2886 42.7614C38.4601 42.7614 38.2473 42.9375 38.2473 44.6466C38.2473 45.5298 38.1809 46.5547 38.2839 47.3647C38.3136 47.6232 38.3502 47.7101 38.3731 47.9252C38.5058 48.941 39.4851 49.8768 40.5009 49.9363C41.2879 49.9798 41.0454 50.0027 41.8485 49.9363L42.5852 49.7144C42.997 49.5222 43.2487 49.2934 43.5278 48.9548C44.3538 47.9595 44.1547 45.9416 44.1547 44.8159C44.1547 44.3949 44.0746 43.1297 44.2645 42.9146C44.411 42.7522 44.7587 42.7591 44.9784 42.7591V42.4937H42.3335V42.7591C42.9078 42.7591 42.9238 42.8391 43.1595 42.8483C43.1823 43.084 43.2922 43.0245 43.2922 43.4157V47.2686C43.2922 48.8884 42.5051 49.5885 40.9127 49.4124C40.8326 49.4055 40.7869 49.3895 40.7137 49.3529L40.2424 49.0806L40.2195 49.0577L40.0639 48.9113C39.6887 48.5292 39.5628 47.8726 39.5628 47.312L39.5194 46.1772C39.5194 45.7654 39.4965 44.1593 39.5491 43.8413C39.6017 43.5026 39.5423 43.2075 39.6155 42.8986C39.874 42.7728 40.0639 42.7659 40.3522 42.7659V42.5005H37.3184V42.7591L37.2886 42.7614ZM3.69043 44.507C3.7705 44.8525 3.94896 45.214 4.04506 45.4931C4.18462 45.905 4.5301 46.7607 4.6056 47.0924L3.36097 47.5271L2.47783 47.6598L3.28089 45.5023C3.30377 45.4291 3.31063 45.4131 3.3541 45.3101C3.42732 45.1545 3.45706 45.0378 3.50968 44.8891L3.67212 44.5276C3.6767 44.5299 3.68356 44.5231 3.69043 44.507ZM0 49.6343V49.8928H2.51901V49.6343C2.217 49.5611 2.23073 49.5908 1.87152 49.5908C1.87152 48.7443 2.10032 48.6917 2.217 48.1906C2.43893 48.1906 2.70204 48.1609 2.94685 48.138C3.18937 48.1151 3.40444 48.0579 3.64009 48.0053C3.87575 47.9527 4.36994 47.8291 4.57585 47.7262C4.72228 47.6529 4.71542 47.6301 4.9076 47.6232C4.91447 47.733 4.92133 47.6896 4.93735 47.7262C4.93735 47.7399 4.95108 47.7788 4.96023 47.7925L4.98311 47.8589C5.02658 48.0144 5.00599 47.9847 5.07234 48.1243C5.16843 48.3531 5.55738 49.3918 5.56653 49.5977C5.33773 49.5977 5.30799 49.584 5.30799 49.7739C5.30799 49.8768 5.33773 49.9066 5.44069 49.9066H7.9597C7.9597 49.1698 7.45178 49.9958 6.94386 49.362C6.84777 49.2362 6.75167 49.0737 6.67846 48.9273C6.63499 48.8312 6.61897 48.7649 6.5755 48.6848C6.50915 48.5521 6.52288 48.6047 6.47255 48.4423L4.84354 44.3904C4.77033 44.1913 4.72457 44.0746 4.65136 43.8824L4.24639 42.8872C4.19377 42.7842 4.23267 42.8643 4.19377 42.7682C4.06107 42.4296 4.05421 42.5692 4.01074 42.3861C3.8277 42.393 3.86431 42.3633 3.77508 42.496C3.70873 42.5921 3.70873 42.6424 3.66526 42.7385L2.16209 46.5181C2.10947 46.644 2.10261 46.6371 2.05913 46.7675L0.903731 49.449C0.837381 49.529 0.793911 49.5817 0.704682 49.6046C0.677227 49.5748 0.00686378 49.6343 0 49.6343ZM9.28899 44.2508L9.54752 44.3034C9.60014 43.736 9.67336 43.4638 10.1447 43.2784C10.2842 43.2258 10.4238 43.1595 10.5931 43.1595H13.1556C13.1487 43.418 12.7438 43.9694 12.5813 44.205L9.07392 49.767C9.42855 49.9363 11.3138 49.8562 11.9384 49.8562C12.293 49.8562 12.5127 49.8997 12.897 49.8997H13.8557C14.8418 49.8997 14.4368 49.9523 14.7388 48.7809C14.7823 48.6116 14.7915 48.559 14.8189 48.3759C14.8486 48.1769 14.9081 48.1174 14.6359 48.1105C14.629 48.4125 14.5398 48.861 14.2812 49.0234C14.0593 49.163 13.6406 49.2957 13.286 49.2957H10.7235C10.7235 49.0898 11.5334 47.9321 11.7096 47.6667L12.2839 46.7973C12.2907 46.7904 12.2976 46.7835 12.2976 46.7675L12.3205 46.7446L12.6225 46.2665C12.666 46.2001 12.7255 46.1109 12.7552 46.0537L13.2631 45.2575C13.3226 45.1774 13.3295 45.1545 13.3821 45.0653L14.0525 43.9968L14.0753 43.974C14.0822 43.9671 14.0891 43.9602 14.0891 43.9442C14.1325 43.8779 14.1119 43.9076 14.1554 43.8344C14.2218 43.7246 14.2286 43.7246 14.2881 43.6216L14.5306 43.2167C14.5375 43.2098 14.5444 43.2029 14.5444 43.1869C14.5512 43.18 14.5581 43.1732 14.5672 43.1572C15.0523 42.4067 14.899 42.5898 12.2244 42.5898L10.2362 42.5829C10.0737 42.5692 9.78775 42.5165 9.61845 42.5028L9.28899 44.2508ZM20.7515 42.5417H16.4937C16.4937 42.9467 16.4502 42.8506 17.4523 42.8506C17.4958 43.0268 17.585 43.0268 17.585 43.2853V48.8472C17.585 49.1561 17.5187 49.3918 17.4157 49.5908C17.0473 49.5908 16.8346 49.6343 16.5028 49.6343V49.8928H21.0627C21.1427 49.8928 21.3052 49.7601 21.3647 49.7167C21.3647 49.282 21.4974 48.9799 21.4974 48.5315C21.4974 48.3691 21.5111 48.5178 21.4539 48.3988C20.9689 48.4423 21.6301 49.3186 20.2825 49.3186C19.5686 49.3186 18.8525 49.4444 18.8525 48.7512V46.2161C19.1911 46.2161 20.2962 46.1932 20.5387 46.3054C20.7607 46.4015 20.8041 46.7698 20.8041 47.0924C21.1862 47.0924 21.0627 47.1588 21.0627 45.4268H20.8041V45.6487C20.5021 45.6487 20.3831 45.6922 20.0674 45.6922H18.8525V43.1068L20.628 43.1961C20.9826 43.3585 20.8934 43.5873 20.8934 43.9762H21.1588C21.1588 43.4386 21.248 43.0268 21.248 42.4891C21.0078 42.496 20.994 42.5417 20.7515 42.5417ZM35.0259 48.1906C35.0259 48.6322 35.0625 48.9342 34.6438 49.2431C34.2022 49.5817 33.422 49.5748 32.9645 49.3094L32.7517 49.1332C32.6853 49.0669 32.7151 49.1035 32.6419 49.0234C32.1179 48.3668 32.6785 47.8817 32.1271 47.8817C32.1271 48.3531 32.0745 49.3186 32.1705 49.7235L32.7883 49.9294C33.3488 50.0393 34.129 50.0324 34.6598 49.8265C34.7559 49.7899 34.836 49.7739 34.9252 49.7464C34.9916 49.7167 35.0808 49.6503 35.138 49.6137L35.2936 49.5107C35.3004 49.5039 35.3073 49.497 35.3233 49.4879L35.3462 49.465L35.9433 48.6688C35.9571 48.6162 35.9662 48.5887 35.9799 48.5292C36.1721 47.9023 36.1424 47.8726 35.9731 47.2411C35.7374 46.3648 34.8612 45.7174 34.1679 45.2163C34.0787 45.15 34.065 45.1271 33.9849 45.0539C33.9048 44.9875 33.8659 44.9738 33.7858 44.8983L33.6097 44.729C33.2939 44.3743 33.255 44.2348 33.255 43.7703C33.255 43.6079 33.3076 43.4454 33.3877 43.3356L33.5799 43.1297C33.9849 42.8208 34.8108 42.798 35.2158 43.1595C35.6276 43.521 35.607 43.6903 35.607 44.1684H35.8656C35.8656 42.6218 36.0349 42.5623 35.305 42.5028C34.582 42.4433 34.2297 42.3106 33.4129 42.6492C32.7791 42.9146 32.3147 43.4958 32.2712 44.2119C32.2346 44.793 32.5801 45.4337 32.9645 45.8615L33.4792 46.3557C33.7286 46.5913 33.9574 46.6943 34.1633 46.8934L34.2732 46.9963C34.5523 47.2457 34.4722 47.1427 34.7376 47.4447L34.8108 47.5408C34.9092 47.7056 35.0259 47.971 35.0259 48.1906Z" fill="white"/>
    </svg>
